<?xml version="1.0" standalone="no"?>
<!DOCTYPE svg PUBLIC "-//W3C//DTD SVG 20010904//EN"
 "http://www.w3.org/TR/2001/REC-SVG-20010904/DTD/svg10.dtd">
<svg version="1.0" xmlns="http://www.w3.org/2000/svg"
 width="512.000000pt" height="512.000000pt" viewBox="0 0 512.000000 512.000000"
 preserveAspectRatio="xMidYMid meet">
<metadata>
Created by potrace 1.14, written by Peter Selinger 2001-2017
</metadata>
<g transform="translate(0.000000,512.000000) scale(0.100000,-0.100000)"
fill="#000000" stroke="none">
<path d="M2 5071 c-1 -42 2 -49 16 -45 14 5 14 4 -1 -6 -17 -11 -18 -26 -16
-158 3 -156 5 -172 22 -172 7 0 7 4 -1 12 -19 19 -14 29 7 16 15 -9 17 -16 10
-30 -6 -12 -6 -18 1 -18 5 0 10 7 10 15 0 9 6 12 15 8 14 -5 14 -8 -1 -24 -10
-11 -12 -19 -6 -19 7 0 12 4 12 10 0 5 7 7 15 4 8 -4 12 -11 8 -18 -4 -6 1 -5
10 3 20 16 13 33 -11 24 -10 -4 -14 -2 -9 3 13 14 74 12 74 -3 0 -9 -4 -10
-12 -3 -9 8 -14 5 -18 -10 -3 -13 -1 -18 6 -13 32 20 47 9 25 -17 -7 -8 3 -1
23 16 20 16 34 34 31 39 -3 6 -2 7 3 3 4 -4 14 -3 22 3 7 6 13 7 13 3 0 -5 -9
-15 -20 -21 -10 -7 -24 -23 -30 -35 -10 -21 -10 -22 3 -5 8 10 17 14 19 10 3
-4 3 -2 2 5 -3 12 8 16 35 13 8 -2 10 2 5 11 -5 9 -2 9 10 -2 11 -8 14 -16 7
-18 -6 -2 -11 -8 -11 -14 0 -7 4 -7 13 0 7 6 24 9 38 6 20 -4 20 -3 5 4 -17 8
-18 9 -3 15 9 3 19 2 22 -4 4 -5 10 -7 15 -4 5 3 10 0 13 -7 2 -7 3 -5 2 5 -2
9 3 17 12 17 9 0 11 -5 7 -12 -6 -10 -4 -10 8 0 10 8 19 9 22 3 3 -5 1 -12 -4
-14 -6 -3 -5 -4 2 -2 7 1 12 8 10 14 -1 6 5 11 14 11 9 0 12 -5 8 -12 -6 -10
-4 -10 7 0 23 21 33 13 13 -10 -19 -23 -19 -23 2 -5 11 9 25 14 29 10 5 -5 4
-1 -2 7 -9 11 -8 19 1 33 17 22 21 22 23 -5 2 -16 0 -19 -6 -9 -6 9 -11 10
-15 2 -4 -6 -2 -12 3 -12 21 -3 26 -4 39 -12 7 -5 9 -13 6 -19 -4 -6 2 -6 15
1 25 14 28 23 4 14 -15 -6 -16 -4 -5 9 10 13 10 18 1 24 -7 4 -9 3 -6 -3 3 -5
0 -10 -6 -10 -7 0 -13 10 -14 21 -1 12 1 15 4 8 4 -10 8 -10 21 0 12 10 14 10
8 1 -9 -16 -1 -16 26 -2 15 8 19 8 14 0 -4 -6 -2 -11 4 -11 6 0 8 -5 4 -11 -4
-8 -9 -7 -15 2 -4 7 -12 10 -16 5 -4 -5 -2 -11 5 -13 6 -3 10 -8 8 -12 -3 -4
1 -8 9 -8 8 0 12 4 10 8 -3 3 5 9 17 13 22 5 22 6 3 21 -19 14 -19 15 -1 8 15
-5 17 -3 11 8 -5 8 -5 11 1 6 5 -5 9 -14 9 -20 0 -7 13 -11 33 -10 30 2 40 -6
25 -20 -3 -4 -12 -2 -20 4 -9 8 -17 8 -26 0 -8 -6 -17 -8 -20 -4 -4 3 -7 1 -7
-5 0 -14 16 -16 25 -2 3 6 15 5 30 -2 23 -10 29 -20 26 -40 -1 -9 27 -4 36 7
4 4 3 5 -4 2 -7 -5 -9 0 -6 13 7 25 10 23 17 -12 3 -19 0 -28 -12 -32 -9 -3
-4 -4 13 -2 l30 4 -24 -19 -24 -20 21 -15 c13 -9 19 -22 17 -34 -2 -11 0 -18
6 -15 5 4 9 -1 9 -10 0 -9 -4 -14 -8 -11 -5 3 -9 -1 -9 -9 0 -8 4 -12 9 -9 4
3 8 1 8 -5 0 -5 -6 -12 -12 -14 -8 -4 -9 -6 -2 -6 6 -1 17 6 24 14 7 8 18 15
24 15 6 0 3 -5 -6 -11 -25 -14 -22 -29 3 -24 20 4 21 3 5 -14 -14 -15 -14 -20
-4 -24 7 -3 3 -5 -9 -3 -12 1 -26 6 -30 11 -5 4 -2 5 6 0 10 -6 12 -4 6 5 -6
9 -4 11 5 5 9 -6 11 -4 5 4 -5 9 -10 10 -18 2 -13 -13 -19 -43 -6 -35 5 3 9
-7 9 -23 0 -22 2 -25 11 -13 7 10 9 11 7 2 -2 -8 -7 -13 -12 -12 -16 3 -25
-24 -14 -38 9 -10 8 -16 -2 -22 -12 -7 -11 -11 1 -27 13 -16 13 -17 -3 -4 -19
14 -22 10 -19 -29 0 -10 -1 -11 -5 -2 -8 18 -23 15 -19 -5 1 -10 0 -12 -2 -5
-5 13 -14 15 -37 6 -9 -3 -13 -11 -9 -18 4 -6 0 -5 -9 2 -9 8 -14 20 -12 27 4
9 -1 13 -15 12 -12 -1 -21 -5 -21 -10 0 -4 -6 -5 -12 0 -7 4 -31 8 -53 9 -22
1 -34 -1 -27 -3 6 -3 9 -10 6 -15 -4 -7 -2 -8 4 -4 7 4 12 2 12 -3 0 -23 -28
-9 -44 22 -11 19 -16 24 -13 11 3 -13 -3 -28 -14 -38 -11 -9 -19 -12 -19 -6 0
8 -11 7 -60 -5 -8 -2 -17 -4 -20 -4 -3 -1 1 -5 9 -10 9 -6 10 -11 2 -15 -6 -4
-11 -1 -11 6 0 9 -3 9 -10 -2 -7 -11 -5 -19 8 -29 15 -12 15 -12 -5 -6 -14 4
-23 2 -23 -4 0 -6 6 -11 13 -11 8 0 8 -3 -2 -9 -8 -5 -20 -7 -27 -4 -8 3 -11
-2 -10 -14 2 -10 -1 -24 -6 -30 -6 -7 -8 -19 -5 -28 4 -8 1 -17 -5 -21 -6 -4
-8 -3 -5 3 3 5 0 10 -8 10 -12 0 -12 -3 -3 -14 9 -11 8 -17 -3 -25 -11 -8 -11
-9 4 -4 12 4 17 0 17 -14 0 -11 -5 -20 -11 -20 -5 0 -7 5 -3 12 5 7 3 8 -6 3
-10 -6 -8 -12 7 -24 11 -9 19 -23 18 -31 0 -8 6 -18 15 -22 11 -6 10 -7 -5 -5
-11 2 -19 8 -18 13 1 6 -5 11 -12 11 -12 0 -12 -3 -3 -14 9 -11 8 -17 -3 -24
-11 -7 -10 -9 6 -7 11 2 21 -1 22 -6 1 -5 7 -12 14 -17 18 -10 20 -36 3 -36
-17 0 -19 14 -3 19 6 2 -2 9 -17 16 -27 11 -27 11 -10 -3 12 -9 15 -15 7 -15
-11 0 -11 -3 -1 -15 7 -8 16 -12 21 -9 5 3 9 0 9 -7 0 -8 4 -8 15 1 9 7 18 10
22 6 3 -3 1 -6 -5 -6 -7 0 -12 -5 -12 -11 0 -5 5 -7 12 -3 7 5 8 3 2 -7 -13
-22 -13 -36 2 -36 7 0 11 4 8 9 -3 4 -1 8 5 8 6 0 8 8 4 18 -3 9 -3 14 1 11 4
-4 9 -19 12 -35 6 -33 14 -45 14 -21 0 10 7 17 15 17 12 0 13 -4 6 -18 -7 -14
-6 -18 9 -18 13 0 16 4 10 11 -6 8 -5 19 4 30 12 17 16 17 31 5 15 -12 19 -12
30 3 11 16 13 16 19 2 4 -12 10 -13 24 -6 13 7 22 7 30 -1 8 -8 16 -7 28 3 12
9 15 10 10 2 -4 -8 -1 -13 8 -13 10 0 13 6 10 18 -5 13 -4 14 4 3 6 -8 22 -15
38 -17 20 -2 24 0 15 9 -6 6 -11 16 -11 22 0 5 5 2 11 -7 5 -9 16 -15 23 -12
8 3 17 0 21 -5 3 -6 11 -9 16 -5 6 3 3 12 -8 21 -15 13 -14 13 8 0 20 -12 29
-13 40 -4 11 10 11 9 0 -5 -15 -20 -2 -25 17 -6 7 7 12 8 12 3 0 -4 10 0 23
11 l22 19 -19 -22 c-11 -13 -14 -23 -8 -23 6 0 18 10 26 22 9 12 16 18 16 12
0 -5 -5 -15 -12 -22 -7 -7 -8 -12 -2 -12 6 0 14 3 18 8 4 4 16 8 27 8 36 3 40
4 34 13 -3 5 -1 12 3 15 8 4 8 -13 3 -57 -1 -5 -8 -1 -17 8 -12 12 -19 13 -30
4 -8 -6 -14 -8 -14 -3 0 5 -5 2 -10 -6 -8 -12 -11 -13 -19 -1 -6 9 -11 10 -15
2 -4 -6 -2 -11 4 -11 6 0 8 -5 4 -11 -5 -8 -1 -8 14 0 25 13 35 14 28 3 -3 -5
1 -9 9 -9 8 0 15 4 15 9 0 4 -5 8 -11 8 -5 0 -7 5 -4 10 5 8 12 7 22 -2 8 -6
25 -13 36 -15 17 -2 19 -1 7 6 -8 6 -12 13 -9 16 8 7 40 -5 35 -14 -2 -3 6 -7
19 -7 19 -2 21 1 12 11 -7 7 -14 12 -17 10 -3 -2 -14 3 -25 11 -19 14 -19 15
8 10 23 -4 28 -2 23 10 -3 9 -2 12 5 9 6 -4 8 -12 6 -19 -3 -6 7 -20 21 -30
14 -11 22 -14 18 -8 -4 7 -3 12 3 12 5 0 11 -3 14 -7 2 -5 2 -2 0 6 -2 8 2 11
12 7 13 -4 14 -2 5 14 -13 25 -12 40 1 17 9 -15 13 -16 26 -5 15 12 15 10 4
-11 -8 -15 -9 -21 -2 -17 6 4 11 2 11 -5 0 -8 4 -9 13 0 10 8 17 7 25 -1 7 -7
12 -8 12 -2 0 5 4 3 9 -5 5 -8 20 -15 33 -15 13 -1 35 -12 48 -24 13 -12 28
-22 33 -22 5 0 7 -9 4 -21 -4 -16 -3 -18 8 -9 10 9 15 6 20 -11 6 -17 9 -19
16 -8 5 9 7 2 4 -18 -2 -21 1 -33 8 -33 7 0 4 -5 -5 -10 -13 -8 -15 -19 -11
-45 4 -25 2 -35 -7 -35 -7 0 -10 -3 -7 -6 4 -4 13 -1 21 5 12 10 15 9 13 -8 0
-11 -5 -17 -11 -14 -5 4 -7 -1 -3 -10 5 -14 -17 -32 -35 -29 -4 1 -5 -10 -2
-24 3 -16 1 -23 -6 -19 -6 4 -7 -1 -3 -11 4 -12 3 -15 -6 -10 -6 4 -11 4 -10
-1 4 -21 -2 -34 -13 -27 -7 5 -8 3 -3 -6 6 -10 3 -12 -13 -8 -15 4 -19 2 -15
-8 7 -18 17 -18 33 1 14 17 30 20 30 4 0 -5 -4 -7 -10 -4 -5 3 -10 2 -10 -3 0
-5 -11 -14 -25 -20 -31 -14 -46 -15 -25 -2 13 8 12 10 -3 10 -10 0 -16 4 -13
8 3 5 -8 8 -24 8 -16 0 -31 -5 -33 -11 -3 -6 3 -11 13 -11 10 0 16 4 13 9 -3
5 0 8 6 6 19 -7 8 -24 -12 -22 -11 2 -15 -1 -11 -8 4 -8 1 -8 -13 -1 -12 7
-25 7 -38 0 -14 -7 -13 -3 5 13 l25 22 -25 -8 c-20 -6 -23 -5 -13 6 7 7 13 17
13 23 0 5 -6 1 -14 -9 -8 -11 -12 -23 -10 -27 2 -4 0 -9 -6 -13 -5 -3 -13 7
-16 22 -7 24 -8 25 -15 8 -6 -19 -7 -19 -14 -2 -7 17 -8 17 -22 0 -14 -17 -14
-17 -9 0 3 9 0 17 -5 17 -6 0 -10 -10 -7 -22 2 -15 -5 -32 -21 -47 -15 -14
-22 -17 -18 -8 3 9 2 19 -2 22 -11 6 -23 -23 -16 -36 4 -5 -1 -6 -9 -3 -14 5
-14 8 -1 27 19 27 19 33 -2 42 -14 5 -15 3 -6 -6 13 -13 6 -42 -8 -33 -5 3 -6
10 -3 16 4 7 2 8 -5 4 -8 -6 -9 -12 -2 -20 6 -7 8 -16 4 -20 -4 -4 -2 -11 6
-15 10 -7 9 -9 -3 -14 -8 -3 -22 1 -30 9 -14 13 -15 11 -12 -21 1 -20 -1 -38
-6 -41 -5 -3 -5 -10 -2 -16 4 -7 2 -8 -5 -4 -6 4 -9 12 -6 17 4 5 1 9 -4 9 -6
0 -11 -5 -11 -11 0 -5 -5 -7 -12 -3 -7 4 -8 3 -4 -5 4 -6 11 -9 16 -6 4 3 10
-2 14 -10 3 -8 0 -17 -6 -21 -7 -4 -8 -3 -4 4 5 8 1 10 -10 5 -16 -6 -15 -8 4
-16 24 -11 28 -22 10 -33 -7 -5 -8 -3 -3 6 5 9 4 11 -4 6 -6 -4 -9 -12 -5 -17
3 -5 0 -17 -7 -25 -6 -8 -9 -17 -5 -21 3 -3 6 0 6 8 1 10 4 9 11 -4 6 -9 14
-15 20 -12 15 10 10 -2 -8 -16 -15 -12 -16 -12 -8 1 8 13 7 13 -8 1 -18 -14
-23 -26 -8 -16 6 3 10 -3 10 -12 2 -53 6 -71 13 -67 5 3 6 9 4 13 -3 4 1 8 9
8 12 0 12 -3 2 -16 -6 -9 -16 -19 -22 -23 -7 -5 -6 -8 0 -8 6 0 15 4 20 8 9 7
50 -26 57 -46 2 -4 7 -6 11 -4 5 1 6 -2 2 -8 -3 -5 -2 -10 2 -10 5 0 13 -8 20
-18 9 -15 8 -19 -3 -19 -7 0 -10 5 -7 10 4 6 1 7 -7 2 -9 -6 -11 -4 -5 5 6 9
4 11 -5 5 -8 -5 -11 -4 -7 2 4 6 0 16 -8 23 -10 9 -15 9 -15 1 0 -6 4 -11 9
-11 5 0 8 -8 6 -17 -2 -10 -4 -22 -4 -26 -1 -5 -6 -5 -13 -1 -7 5 -8 3 -3 -6
6 -10 11 -9 22 5 12 18 18 13 13 -10 -1 -5 2 -7 6 -3 4 4 14 2 22 -5 13 -10
14 -9 8 1 -4 7 -1 15 8 18 9 3 13 10 10 15 -3 5 0 9 5 9 6 0 11 -4 11 -8 0
-12 34 -11 41 1 4 5 9 5 13 -2 4 -6 2 -11 -4 -11 -6 0 -9 -4 -6 -8 6 -10 -25
-9 -42 2 -6 4 -12 6 -13 4 -7 -27 -3 -44 12 -44 10 0 17 4 16 9 -1 5 4 12 10
14 7 3 13 -2 13 -11 0 -9 4 -16 10 -16 5 0 6 7 3 17 -5 12 -3 14 7 8 9 -6 11
-4 5 5 -5 8 -3 11 6 8 8 -3 13 -14 12 -24 -1 -10 0 -13 3 -6 3 6 11 9 16 6 7
-5 8 -2 3 6 -5 8 -3 11 6 8 8 -3 12 -12 11 -19 -2 -8 0 -10 4 -6 10 10 14 38
5 32 -4 -2 -8 3 -8 11 0 10 4 11 11 4 17 -17 29 -11 15 8 -13 15 -12 16 4 3
14 -11 15 -17 5 -30 -7 -9 -8 -13 -4 -9 5 4 15 3 23 -4 11 -9 18 -8 30 5 14
14 14 15 -10 13 -15 -2 -24 1 -21 6 3 5 0 15 -6 23 -7 8 -9 15 -5 15 4 0 14
-8 21 -17 7 -10 17 -19 23 -19 6 -1 16 -2 22 -3 8 -1 8 -6 -1 -16 -9 -10 -9
-15 -1 -15 6 0 11 5 11 11 0 6 7 8 15 5 9 -3 18 1 21 8 3 8 15 16 26 19 19 5
19 4 -3 -20 -13 -15 -19 -23 -12 -20 6 4 13 4 16 0 2 -5 2 -3 1 4 -2 7 6 15
17 18 10 4 17 10 14 15 -3 5 0 12 6 16 8 5 9 3 4 -6 -5 -9 -1 -11 16 -6 13 3
18 3 12 0 -10 -4 -9 -11 2 -28 8 -12 12 -25 9 -29 -3 -3 0 -5 8 -4 15 3 18 9
17 35 0 15 -1 15 -8 -2 -7 -18 -8 -18 -14 -3 -3 9 -3 17 1 18 4 0 14 2 22 4
20 4 20 -55 0 -73 -12 -10 -11 -10 10 -3 17 6 24 15 22 27 -2 16 -1 17 8 4 7
-11 5 -19 -9 -31 -19 -16 -19 -17 1 -50 l20 -34 -24 23 c-13 12 -28 22 -34 22
-5 0 -1 -5 9 -11 9 -5 17 -15 17 -20 0 -6 -6 -7 -12 -3 -10 6 -10 5 -1 -8 7
-8 9 -19 5 -23 -4 -5 -1 -5 6 -1 7 4 10 12 7 17 -4 5 2 6 11 2 11 -4 13 -8 6
-11 -16 -5 -15 -32 1 -32 8 0 7 -3 -3 -9 -8 -6 -17 -8 -21 -5 -4 2 -13 -4 -20
-14 -13 -15 -12 -16 3 -4 20 16 37 -4 18 -21 -10 -9 -11 -9 -5 3 8 13 6 13 -8
1 -9 -7 -15 -17 -12 -21 5 -8 -13 -25 -27 -25 -3 0 -9 -3 -13 -6 -3 -4 2 -6
12 -6 36 0 42 -3 40 -22 0 -11 -4 -18 -8 -15 -4 2 -10 0 -14 -5 -3 -6 -12 -8
-19 -5 -8 3 -17 1 -20 -4 -3 -6 -16 -8 -28 -4 -16 4 -19 2 -13 -8 5 -9 4 -11
-4 -6 -6 4 -18 2 -26 -4 -11 -9 -15 -9 -15 -1 0 6 5 11 11 11 5 0 7 5 3 12 -4
6 -3 8 2 5 6 -3 16 -2 23 2 10 7 9 9 -2 14 -9 3 -21 -1 -27 -9 -7 -8 -19 -14
-26 -14 -8 0 -14 -5 -14 -11 0 -8 -5 -8 -15 1 -8 7 -15 9 -15 6 0 -4 -9 -2
-21 5 -17 9 -25 7 -47 -13 -14 -12 -22 -17 -18 -10 4 6 3 12 -3 12 -5 0 -12
-6 -14 -12 -3 -7 -4 -2 -3 12 1 14 5 30 8 36 4 5 -1 10 -11 10 -9 0 -17 -8
-17 -17 0 -10 5 -15 10 -12 5 3 6 1 2 -5 -4 -6 -13 -9 -22 -5 -9 3 -14 0 -12
-7 2 -7 -3 -14 -10 -15 -7 -2 -8 -1 -2 2 7 3 4 10 -7 19 -15 12 -15 13 -2 8
10 -3 20 -1 24 5 4 7 -1 8 -12 4 -16 -6 -17 -5 -3 13 14 17 13 18 -1 7 -9 -7
-18 -10 -22 -7 -3 3 -4 -5 -3 -19 2 -19 -1 -23 -16 -19 -10 2 -18 9 -18 16 0
6 -4 5 -9 -3 -5 -8 -16 -11 -25 -8 -14 6 -15 3 -6 -13 6 -11 13 -20 16 -20 3
0 2 5 -2 12 -4 7 -3 8 4 4 7 -4 12 -2 12 4 0 6 5 8 11 4 8 -5 7 -9 -4 -16 -9
-4 -14 -17 -12 -28 2 -12 0 -18 -6 -15 -5 4 -6 11 -3 17 4 6 1 9 -7 6 -8 -3
-15 -10 -15 -16 -1 -7 -2 -16 -3 -20 0 -5 -8 -9 -17 -9 -14 0 -14 2 2 14 16
12 16 13 1 13 -9 0 -17 -5 -17 -11 0 -5 -6 -7 -12 -3 -10 6 -10 4 0 -8 7 -9 9
-19 4 -22 -5 -3 -7 -17 -5 -31 3 -13 10 -22 15 -19 6 4 6 -1 0 -13 -12 -22
-11 -41 3 -63 8 -13 7 -13 -10 0 -16 14 -17 13 -11 -8 5 -13 3 -22 -3 -22 -6
0 -10 5 -9 11 2 6 -4 14 -12 16 -9 3 -11 1 -5 -4 17 -14 17 -36 1 -30 -9 4
-18 2 -21 -3 -3 -4 6 -7 19 -6 17 2 23 -1 19 -10 -5 -12 8 -19 30 -15 4 0 7
-4 7 -10 0 -6 -9 -8 -22 -3 l-23 6 23 -20 c22 -19 22 -23 10 -41 -8 -12 -18
-18 -23 -13 -5 4 -5 1 -1 -6 6 -10 11 -10 22 -2 11 10 13 6 10 -18 -4 -26 -1
-29 20 -26 14 1 28 -5 33 -14 8 -13 12 -14 25 -3 9 7 13 18 9 24 -3 6 -1 7 5
3 9 -5 7 -14 -5 -31 l-18 -24 -19 22 -19 22 8 -24 c4 -14 3 -21 -2 -18 -5 4
-10 0 -10 -8 0 -8 4 -15 9 -15 4 0 8 4 8 9 0 13 40 9 41 -4 1 -5 1 -19 0 -30
-1 -18 0 -19 7 -2 4 10 11 18 15 17 4 0 14 3 23 8 14 8 14 10 0 21 -9 8 -16
18 -16 23 0 5 12 -5 26 -22 20 -23 24 -34 15 -43 -6 -6 -11 -15 -11 -21 0 -5
7 -1 15 10 13 16 16 17 25 4 5 -8 10 -10 10 -5 0 6 5 3 11 -5 9 -13 10 -13 6
2 -3 9 -1 19 6 22 7 2 2 4 -10 3 -12 -1 -23 3 -24 8 -1 6 -10 16 -20 23 -20
14 -26 42 -9 42 5 0 6 -7 3 -17 -5 -12 -3 -14 7 -8 8 5 11 4 7 -2 -6 -10 32
-36 49 -32 20 3 26 -2 16 -14 -6 -7 -10 -19 -9 -27 5 -31 18 -40 55 -35 26 3
33 2 22 -5 -13 -8 -8 -14 11 -12 3 1 6 -5 6 -13 0 -8 -5 -11 -10 -8 -6 4 -7
-3 -3 -18 4 -13 9 -37 10 -54 1 -16 5 -36 10 -43 4 -7 5 -16 2 -19 -3 -4 -6
-1 -6 5 0 6 -10 17 -22 23 -22 12 -22 11 -5 -8 19 -21 22 -34 8 -30 -5 1 -9
-2 -10 -8 -1 -5 3 -10 9 -10 5 0 15 -7 22 -15 11 -12 11 -12 -4 -1 -15 11 -17
9 -16 -18 1 -19 5 -28 12 -24 6 4 5 -1 -2 -10 -8 -9 -11 -21 -7 -28 5 -7 0 -7
-16 2 -23 12 -23 12 -4 20 20 9 20 9 0 6 -11 -2 -19 -9 -18 -18 2 -9 -5 -15
-17 -16 -13 -1 -18 2 -14 9 4 7 2 8 -4 4 -9 -5 -9 -13 -2 -27 6 -10 7 -19 3
-19 -4 0 -2 -4 6 -9 9 -6 10 -11 2 -15 -6 -4 -11 -3 -11 2 0 5 -7 9 -15 9 -8
0 -15 -4 -15 -9 0 -4 5 -8 10 -8 6 0 10 -5 10 -11 0 -8 -5 -7 -15 1 -11 10
-19 10 -27 2 -6 -6 -17 -8 -26 -5 -10 5 -13 2 -8 -6 5 -8 18 -10 32 -7 13 4
24 3 24 -2 0 -11 -48 -13 -55 -2 -3 6 -11 10 -17 10 -6 0 -6 -6 2 -15 7 -9 10
-18 6 -22 -3 -3 -6 -1 -6 5 0 6 -6 10 -12 8 -7 -1 -10 -1 -5 1 4 3 4 9 1 14
-3 6 -12 5 -22 -3 -13 -11 -14 -11 -8 1 6 9 5 12 -5 9 -8 -3 -13 -10 -12 -15
2 -11 -42 -11 -53 0 -5 4 -1 5 7 2 10 -4 16 0 16 10 0 11 -6 14 -16 9 -9 -4
-29 -8 -46 -9 -16 -2 -32 -4 -35 -5 -3 -1 -8 -2 -12 -1 -5 0 -8 -5 -8 -12 0
-6 -5 -4 -11 6 -5 9 -15 17 -21 17 -6 0 -5 -7 3 -18 13 -15 12 -16 -3 -4 -14
11 -18 10 -26 -5 -6 -10 -14 -14 -19 -9 -4 5 -2 11 5 13 6 3 12 9 12 14 0 6
-4 8 -9 4 -5 -3 -12 -1 -16 4 -3 6 7 10 22 10 55 0 64 3 51 18 -6 8 -21 19
-32 24 -16 8 -15 6 4 -10 18 -15 20 -21 9 -21 -8 0 -21 6 -28 13 -11 10 -13
10 -7 0 4 -8 1 -13 -7 -13 -8 0 -20 -7 -27 -15 -7 -8 -17 -12 -24 -8 -6 3 -8
3 -4 -2 4 -4 -1 -16 -12 -25 -13 -12 -18 -25 -14 -44 4 -23 3 -25 -10 -14 -7
7 -11 18 -8 23 3 6 -2 4 -11 -4 -18 -14 -23 -26 -8 -16 5 3 12 1 16 -5 6 -9
-8 -15 -29 -11 -5 1 -5 -4 1 -11 6 -7 9 -28 7 -45 -2 -18 1 -33 6 -33 6 0 10
-5 10 -11 0 -5 -4 -7 -10 -4 -5 3 -10 3 -11 -2 0 -4 -2 -18 -3 -31 -2 -13 3
-26 9 -30 19 -11 25 -39 9 -39 -8 0 -13 6 -10 14 3 7 1 13 -4 13 -16 0 -11
-30 6 -37 13 -5 13 -7 2 -14 -13 -9 -13 -9 25 -13 6 0 13 -7 13 -13 1 -7 3
-15 4 -18 1 -3 3 -11 4 -17 1 -7 7 -12 13 -11 6 1 17 -4 23 -12 8 -9 8 -15 2
-15 -6 0 -12 4 -14 9 -2 5 -12 3 -22 -5 -20 -14 -20 -14 0 -14 10 0 26 -5 34
-11 12 -8 9 -9 -10 -5 -14 3 -19 3 -12 0 6 -3 12 -12 12 -20 0 -8 5 -14 11
-14 5 0 8 4 5 9 -9 13 22 7 36 -7 9 -9 9 -12 0 -12 -7 0 -12 6 -12 13 0 8 -4
7 -10 -3 -5 -8 -10 -19 -10 -25 0 -5 5 -3 10 5 7 11 10 11 10 2 0 -7 4 -10 10
-7 5 3 10 0 10 -7 0 -8 3 -9 8 -3 10 14 35 12 48 -3 8 -11 12 -11 23 2 7 9 17
14 21 11 5 -3 12 -1 15 5 4 6 1 9 -6 8 -6 -2 -14 4 -16 12 -3 9 -1 11 4 5 7
-10 25 -12 38 -5 3 1 15 3 28 4 12 1 21 8 19 15 -1 7 2 10 8 6 8 -5 8 -11 -1
-21 -6 -7 -15 -11 -20 -8 -5 3 -9 0 -9 -6 0 -7 -7 -9 -16 -6 -8 3 -12 2 -9 -4
3 -6 1 -10 -4 -10 -6 0 -11 -4 -11 -10 0 -5 16 0 35 11 29 17 38 19 50 9 10
-8 15 -9 15 -2 0 6 7 9 15 6 10 -4 15 0 16 12 0 18 1 18 8 1 4 -10 10 -18 14
-18 4 1 8 0 10 0 11 -6 65 -3 61 3 -3 5 -10 5 -16 2 -7 -5 -8 -2 -3 7 7 11 5
11 -10 -1 -11 -8 -16 -10 -11 -3 5 9 2 11 -7 7 -8 -3 -18 0 -22 6 -4 7 2 9 19
6 15 -3 26 0 26 7 0 6 6 2 14 -9 8 -10 18 -15 22 -11 5 4 2 13 -6 18 -12 9
-11 9 5 4 11 -4 28 -7 37 -7 10 0 20 -3 23 -7 2 -5 -7 -8 -22 -7 -14 0 -28 -4
-30 -11 -3 -7 4 -11 16 -10 12 1 21 4 21 7 0 4 7 7 15 7 8 0 15 -5 15 -11 0
-6 5 -4 10 4 5 8 10 12 10 7 0 -4 13 -1 29 7 19 10 31 12 38 5 8 -8 13 -7 17
0 12 19 29 12 23 -9 -3 -13 0 -20 8 -20 8 0 14 -8 14 -18 2 -53 6 -69 18 -69
7 0 9 5 5 11 -5 6 -8 18 -7 26 0 8 -4 19 -10 23 -6 5 -4 7 5 4 8 -2 15 -12 15
-23 0 -10 5 -26 10 -34 5 -8 8 -25 6 -37 -1 -13 1 -23 6 -23 4 0 13 -8 20 -18
9 -15 8 -19 -3 -19 -7 0 -11 4 -9 8 3 4 -1 9 -8 12 -18 7 -13 -53 5 -64 8 -5
9 -9 2 -9 -7 0 -14 -9 -17 -21 -3 -12 -3 -18 0 -15 6 6 33 -18 33 -30 0 -5 -5
-3 -12 4 -15 15 -38 16 -38 1 0 -5 4 -8 9 -5 5 3 15 -2 22 -12 12 -15 12 -16
-1 -5 -10 7 -21 8 -30 3 -8 -5 -18 -6 -22 -4 -4 3 -5 -2 -2 -11 5 -12 10 -13
17 -6 15 15 24 14 24 -4 0 -8 -4 -12 -9 -9 -4 3 -13 2 -20 -2 -8 -5 -6 -10 7
-14 18 -6 17 -7 -3 -12 -12 -4 -20 -2 -16 3 3 5 0 9 -6 9 -6 0 -8 5 -4 12 4 6
3 8 -3 5 -5 -3 -8 -19 -5 -36 2 -16 -1 -37 -7 -48 -9 -15 -10 -12 -6 17 4 23
2 30 -4 21 -7 -11 -9 -11 -14 0 -3 8 -5 3 -4 -10 2 -21 -3 -25 -30 -27 -22 -1
-31 2 -26 10 4 6 -1 5 -10 -3 -22 -18 -22 -20 7 -17 17 2 23 -1 19 -11 -4 -9
-9 -10 -18 -3 -6 5 -15 6 -19 2 -10 -9 -66 -10 -60 -1 2 4 17 6 32 4 15 -2 21
-2 14 2 -11 4 -10 9 2 22 14 15 14 18 1 18 -8 0 -12 -4 -9 -8 5 -9 -14 -22
-35 -26 -8 -1 -18 -8 -22 -15 -7 -10 -9 -10 -9 2 0 11 -3 11 -12 2 -15 -15
-28 -15 -28 -1 0 5 5 7 12 3 7 -4 8 -3 4 4 -4 7 1 10 14 7 11 -2 23 1 26 7 4
7 2 8 -4 4 -7 -4 -12 -1 -12 6 0 9 -3 9 -10 -2 -5 -8 -10 -11 -10 -6 0 5 -6 3
-14 -3 -10 -9 -16 -8 -26 4 -7 8 -18 15 -24 15 -7 0 -6 -4 2 -9 8 -4 14 -12
14 -17 0 -5 5 -8 11 -6 7 2 9 0 5 -4 -4 -4 -3 -12 2 -19 7 -8 5 -12 -5 -12 -8
0 -13 3 -11 6 1 3 -5 14 -16 24 -20 19 -23 15 -8 -13 11 -21 -4 -38 -16 -19
-4 8 -3 9 4 5 17 -10 15 -1 -3 14 -12 10 -13 8 -10 -10 2 -12 -2 -23 -10 -27
-8 -3 -15 -9 -15 -15 0 -5 4 -6 10 -3 5 3 10 -1 10 -9 0 -9 -5 -16 -12 -16 -6
0 -8 -3 -5 -6 4 -4 13 -2 20 4 10 9 14 8 14 -3 0 -8 -4 -12 -9 -9 -7 5 -12
-10 -9 -29 1 -5 -3 -6 -9 -2 -6 3 -8 10 -5 15 3 4 -2 11 -11 14 -10 4 -13 2
-8 -6 4 -6 -1 -17 -11 -25 -11 -7 -14 -13 -9 -13 6 0 15 5 21 11 7 7 12 6 17
-6 4 -10 2 -14 -5 -9 -7 4 -10 1 -7 -7 3 -8 11 -13 17 -12 16 4 14 -2 -6 -18
-11 -10 -14 -10 -9 -1 4 6 3 12 -2 12 -5 0 -9 -12 -10 -26 0 -18 4 -22 11 -15
14 14 27 14 27 0 0 -5 -5 -7 -12 -3 -7 5 -9 0 -6 -14 5 -19 3 -20 -12 -12 -13
7 -21 7 -25 0 -4 -6 -1 -9 7 -8 7 2 12 -3 10 -10 -1 -8 2 -11 8 -7 5 3 10 -1
10 -10 0 -9 -4 -14 -9 -10 -15 9 -25 -15 -12 -28 9 -9 10 -7 5 8 -4 11 -4 17
1 13 11 -11 36 12 28 25 -3 6 -1 7 6 3 8 -5 9 -12 3 -19 -5 -7 -13 -23 -16
-37 l-7 -25 15 25 16 25 -6 -32 c-5 -24 -3 -33 6 -33 8 0 10 -3 7 -7 -4 -3 0
-18 9 -32 13 -23 12 -22 -11 4 -19 21 -24 24 -16 8 16 -31 14 -38 -6 -22 -16
13 -17 12 -4 -3 12 -17 94 -18 1378 -18 1093 0 1363 2 1357 12 -5 9 -3 9 9 -1
14 -11 17 -11 17 0 0 9 3 10 8 3 11 -16 81 -13 74 4 -3 10 -7 11 -12 2 -5 -9
-9 -9 -14 -1 -4 6 7 19 24 30 24 14 27 20 16 24 -9 4 -20 -1 -25 -11 -6 -9
-11 -12 -11 -5 0 9 -6 7 -20 -4 -13 -11 -16 -19 -9 -24 8 -5 8 -8 0 -13 -10
-6 -13 0 -10 20 0 4 -5 11 -13 16 -10 6 -8 8 6 6 13 -2 25 6 33 22 11 21 13
22 13 6 0 -11 3 -16 8 -12 10 11 9 30 -3 39 -6 5 -4 7 5 4 8 -2 14 -9 13 -15
-1 -5 5 -13 14 -16 12 -5 14 -1 10 15 -3 11 -3 18 0 15 4 -3 16 2 27 11 20 18
21 17 5 -2 -8 -11 -16 -31 -16 -45 -1 -14 1 -19 4 -12 3 6 10 9 16 5 7 -4 7 0
-1 9 -11 14 -10 18 7 27 14 8 22 8 27 -1 4 -6 3 -8 -4 -4 -6 3 -13 2 -16 -3
-8 -13 19 -8 36 7 8 6 18 9 22 4 4 -4 12 1 17 11 6 9 14 15 18 13 5 -3 6 6 3
19 -2 14 -8 22 -13 19 -5 -3 -9 0 -9 5 0 17 28 13 40 -6 10 -16 11 -16 6 -1
-6 22 16 42 31 27 14 -14 36 -1 29 16 -7 19 17 38 31 24 8 -8 13 -7 18 0 3 6
3 10 -2 9 -4 -2 -8 2 -8 7 0 6 4 9 8 7 4 -1 3 6 -2 17 -6 10 -7 22 -3 26 4 5
1 5 -6 1 -7 -4 -9 -12 -6 -18 8 -13 -54 -70 -67 -62 -5 3 -9 0 -9 -7 0 -7 -3
-10 -6 -6 -3 3 -1 14 5 24 6 11 11 13 11 5 0 -7 5 -10 10 -7 6 4 8 11 4 16 -3
5 -2 9 3 8 21 -4 34 2 27 13 -4 6 -3 8 4 4 16 -10 8 44 -9 56 -10 7 -8 8 7 3
14 -4 24 0 27 9 4 11 1 13 -11 9 -15 -6 -16 -5 -2 12 14 17 13 17 -10 10 -22
-7 -23 -6 -11 9 7 9 10 16 5 17 -5 0 0 4 11 9 19 8 19 9 1 9 -16 1 -17 3 -5
18 12 14 12 16 -1 8 -16 -10 -53 -15 -45 -7 6 7 -25 42 -37 42 -5 0 -7 -4 -3
-9 3 -5 1 -12 -4 -15 -5 -4 -8 1 -7 9 3 23 14 29 31 15 8 -7 16 -9 16 -4 6 40
5 53 -5 51 -6 -1 -10 4 -9 10 2 7 -2 13 -7 13 -6 0 -10 8 -11 18 0 14 -2 14
-9 -3 -7 -17 -9 -17 -9 -2 -1 9 -6 17 -11 17 -7 0 -7 -7 0 -20 6 -11 16 -18
21 -14 6 3 9 -2 7 -12 -2 -11 3 -19 11 -19 8 0 16 -6 19 -13 3 -11 0 -12 -16
-3 -10 6 -23 7 -27 3 -3 -4 -6 -2 -5 3 4 20 0 36 -8 31 -5 -3 -9 0 -10 7 0 7
-3 26 -7 42 -5 24 -4 28 6 17 16 -15 29 -16 29 -1 0 5 -4 8 -9 5 -10 -6 -34
18 -26 26 3 2 -2 5 -10 5 -11 0 -12 -4 -4 -13 6 -8 6 -14 0 -18 -5 -4 -12 -2
-16 4 -3 5 -3 10 1 10 4 0 0 8 -8 18 -26 30 -31 42 -14 36 9 -3 13 -11 9 -17
-4 -6 -1 -7 7 -2 9 5 11 4 6 -3 -5 -8 -2 -10 8 -6 16 6 23 25 8 23 -20 -3 -23
3 -11 19 12 15 12 16 -2 5 -16 -13 -29 -8 -29 9 0 5 5 6 11 2 6 -3 3 5 -6 20
-10 14 -24 26 -32 26 -15 0 -14 30 2 43 6 4 -2 5 -16 2 -19 -5 -28 -2 -33 10
-3 9 -10 13 -16 10 -5 -3 -10 -1 -10 4 0 15 20 14 34 -2 6 -7 10 -10 9 -8 -2
2 2 10 9 18 9 11 7 12 -7 7 -13 -5 -16 -4 -11 4 8 13 -20 12 -41 -1 -12 -8
-12 17 0 29 12 12 8 24 -9 24 -8 0 -13 -4 -9 -9 3 -5 1 -12 -4 -15 -10 -7 -9
9 3 36 4 9 3 25 -3 35 -9 15 -10 13 -5 -12 5 -29 5 -29 -11 -10 -13 16 -19 18
-35 7 -10 -6 -26 -9 -34 -6 -8 3 -17 1 -21 -5 -3 -6 0 -9 7 -6 7 3 24 -5 38
-16 14 -11 20 -18 13 -15 -6 3 -14 0 -16 -6 -3 -8 -6 -6 -6 5 -1 19 -31 24
-31 5 0 -9 -4 -8 -10 2 -6 9 -10 10 -10 3 0 -6 5 -15 11 -18 7 -5 5 -13 -5
-24 -13 -14 -13 -20 -3 -30 9 -10 8 -11 -5 -6 -21 8 -22 17 -6 33 7 7 9 12 5
12 -4 0 -16 -9 -27 -20 -11 -11 -28 -17 -40 -15 -11 2 -18 0 -15 -6 4 -5 12
-6 18 -3 7 4 9 4 5 -1 -4 -4 -3 -14 3 -21 8 -9 4 -12 -15 -10 -14 2 -31 8 -39
14 -16 13 -42 -1 -32 -17 5 -9 10 -9 20 -1 19 16 27 -4 10 -26 -11 -14 -14
-15 -9 -3 4 13 -1 16 -23 13 -15 -1 -33 2 -40 8 -7 6 -13 7 -13 3 0 -4 -8 -1
-17 6 -16 12 -17 12 -7 -1 17 -24 3 -67 -18 -54 -7 4 -6 9 2 14 10 6 10 12 0
26 -9 16 -11 16 -6 2 3 -10 1 -20 -5 -23 -5 -4 -7 -11 -4 -16 4 -5 2 -9 -4 -9
-5 0 -11 3 -14 7 -2 5 -2 2 -1 -5 2 -7 -3 -15 -11 -18 -8 -4 -12 -10 -9 -15 3
-5 0 -9 -5 -9 -15 0 -14 13 1 29 10 11 10 13 1 7 -8 -4 -13 -2 -13 6 0 8 -5 6
-11 -5 -5 -9 -7 -22 -4 -27 3 -6 1 -10 -5 -10 -6 0 -13 7 -16 15 -4 8 -10 15
-15 15 -11 0 -7 -23 6 -32 5 -4 6 -10 2 -15 -9 -9 -28 17 -21 29 3 4 0 8 -6 8
-6 0 -8 6 -4 13 4 6 -1 4 -12 -5 -18 -17 -18 -18 1 -33 19 -15 19 -16 -3 -5
-22 11 -23 10 -17 -12 5 -20 4 -20 -5 -5 -6 9 -8 22 -5 27 3 6 -1 7 -9 4 -9
-3 -13 -11 -9 -17 3 -6 1 -7 -5 -3 -14 9 -4 36 13 36 19 0 28 17 14 26 -8 4
-9 3 -5 -4 4 -7 1 -12 -9 -12 -8 0 -18 -7 -21 -15 -4 -8 -10 -12 -15 -9 -5 3
-7 9 -4 14 3 5 0 12 -7 16 -7 4 -10 4 -6 -1 10 -10 -10 -47 -22 -40 -5 3 -11
1 -15 -5 -8 -13 -25 -13 -25 1 0 5 4 8 9 4 5 -3 12 -1 16 5 4 6 11 8 16 5 5
-4 9 -1 9 4 0 6 -5 11 -11 11 -5 0 -8 4 -5 8 2 4 -4 8 -15 8 -18 0 -18 -2 -5
-12 9 -6 13 -14 9 -17 -3 -4 -13 -2 -20 5 -8 7 -23 12 -33 13 -15 1 -17 -2 -9
-16 6 -12 5 -20 -1 -24 -6 -4 -7 -11 -4 -17 4 -7 2 -8 -5 -4 -6 4 -9 11 -6 16
3 5 0 12 -6 15 -5 4 -8 12 -6 19 3 8 -7 12 -28 12 -19 0 -32 -3 -29 -7 2 -4
-4 -6 -13 -5 -10 2 -23 -3 -28 -11 -8 -11 -11 -9 -13 11 -1 14 3 26 9 26 5 0
8 -4 5 -8 -3 -5 1 -9 9 -9 8 0 15 4 15 9 0 4 -5 8 -11 8 -5 0 -8 4 -5 8 6 10
-40 9 -50 -1 -5 -4 0 -5 10 -1 14 5 17 4 12 -4 -12 -20 -31 -13 -43 15 -7 16
-26 36 -42 45 -29 16 -30 16 -41 -10 -9 -25 -10 -24 -6 11 4 33 3 36 -10 22
-9 -8 -20 -13 -25 -10 -5 4 -9 2 -9 -4 0 -11 -26 -9 -37 4 -4 4 -2 5 5 1 8 -5
12 0 12 14 0 12 -12 28 -31 39 -31 19 -31 19 -9 34 18 12 19 15 5 21 -10 4
-14 2 -9 -5 4 -7 1 -10 -7 -7 -8 3 -13 16 -12 29 2 22 2 22 -6 4 -5 -12 -5
-25 1 -33 6 -6 6 -12 2 -12 -5 0 -15 9 -22 20 -7 12 -16 18 -21 16 -12 -8 -54
31 -46 43 3 6 12 11 18 10 8 0 8 -2 -1 -6 -10 -4 -10 -8 -1 -19 6 -8 16 -11
22 -7 5 3 7 2 4 -4 -3 -5 0 -10 8 -10 18 0 28 24 13 33 -6 4 -8 3 -4 -4 4 -7
-1 -10 -14 -9 -15 1 -19 7 -16 24 5 23 -9 23 -44 0 -8 -5 1 5 20 23 19 18 26
27 14 22 -23 -12 -65 -12 -58 0 3 4 12 5 22 2 13 -5 14 -4 3 4 -7 5 -9 12 -5
14 11 6 -11 0 -33 -9 -16 -6 -16 -5 -4 11 12 14 12 19 2 26 -11 6 -11 9 0 14
8 3 5 4 -7 1 -14 -4 -21 0 -21 10 0 10 6 14 16 10 13 -4 12 -2 -1 9 -10 7 -18
18 -18 25 0 7 -10 10 -23 7 -30 -5 -50 7 -53 31 -1 10 -5 27 -8 38 -4 11 0 8
9 -7 18 -32 31 -38 15 -8 -6 11 -8 26 -4 32 4 6 3 8 -4 4 -6 -3 -15 6 -21 21
-10 26 -10 26 -8 4 1 -13 -4 -26 -12 -29 -10 -3 -11 2 -6 19 7 22 7 23 -10 9
-17 -14 -17 -14 -5 6 11 18 11 27 0 53 -7 17 -17 31 -22 31 -5 0 -6 -4 -3 -10
3 -5 2 -10 -3 -10 -6 0 -13 7 -16 16 -4 10 -2 13 6 8 7 -5 9 -2 5 8 -3 9 0 21
6 27 9 10 9 12 -2 9 -8 -2 -14 6 -16 20 -2 25 -23 44 -37 36 -5 -3 -8 -2 -7 3
4 22 -3 33 -18 34 -13 0 -14 2 -4 6 8 3 23 -5 33 -18 11 -13 17 -18 13 -10 -4
7 -2 17 5 21 14 9 5 30 -13 30 -8 0 -8 -3 2 -9 7 -5 9 -11 4 -14 -6 -4 -20 3
-32 14 -17 16 -21 28 -17 48 6 24 5 25 -8 8 -13 -17 -14 -16 -12 6 0 14 6 23
11 20 6 -2 11 7 12 19 2 18 0 20 -7 8 -8 -13 -10 -13 -10 2 0 9 6 19 13 22 6
3 3 4 -8 1 -13 -3 -25 2 -33 16 -8 12 -10 19 -5 16 5 -3 14 3 21 14 7 10 8 19
3 19 -5 0 -12 -6 -15 -12 -3 -7 -4 3 -1 22 4 29 3 31 -5 13 -5 -13 -13 -23
-16 -23 -4 0 -4 3 0 7 3 4 -4 13 -16 20 l-23 14 23 -6 c16 -5 22 -2 22 9 0 9
-3 15 -7 15 -20 -3 -24 2 -13 16 7 8 9 15 5 15 -4 0 -2 7 5 16 8 8 9 14 4 13
-20 -4 -35 2 -29 11 3 5 11 8 18 6 7 -1 8 -1 4 2 -4 2 -2 11 5 20 10 12 5 11
-17 -3 l-30 -19 20 24 c17 20 17 22 3 17 -12 -4 -15 -2 -11 9 3 8 -1 14 -10
14 -21 0 -31 17 -16 26 8 4 9 3 5 -4 -4 -7 -1 -12 6 -12 7 0 14 11 14 25 1 14
-2 25 -8 25 -5 0 -7 -4 -4 -8 3 -5 -1 -9 -9 -9 -8 0 -13 5 -12 11 1 6 -4 10
-11 8 -8 -1 -11 2 -8 7 4 5 19 8 34 5 18 -3 23 -2 13 5 -11 7 -11 10 0 15 8 3
4 3 -9 0 -20 -5 -21 -3 -12 21 10 25 0 64 -14 58 -3 -2 -6 -1 -6 2 0 3 0 10 0
15 0 6 5 10 11 10 8 0 7 -6 -2 -17 -11 -15 -11 -16 1 -6 24 21 22 45 -3 38
-16 -5 -18 -4 -8 3 11 8 11 11 0 16 -8 3 -4 4 8 2 22 -4 22 -3 -4 33 l-27 36
28 -25 29 -25 -18 27 c-16 26 -16 28 -1 34 15 6 15 8 -1 20 -10 7 -14 14 -10
14 5 0 1 7 -7 16 -22 21 -20 33 7 44 13 5 16 9 7 9 -8 1 -21 10 -28 21 -14 22
-3 27 18 8 12 -11 12 -10 3 2 -7 9 -10 34 -9 55 2 22 2 34 -1 27 -3 -6 -9 -10
-14 -6 -14 8 10 46 24 38 7 -4 8 -3 4 2 -5 5 -14 9 -19 9 -6 0 -13 6 -16 14
-3 8 0 11 6 7 6 -3 9 1 8 11 -2 10 -10 19 -20 19 -13 2 -13 1 -1 -3 8 -2 13
-9 9 -14 -3 -5 -9 -7 -13 -5 -4 3 -8 -1 -8 -9 0 -8 3 -15 7 -15 3 0 6 -9 7
-21 1 -11 -3 -19 -10 -16 -6 2 -11 14 -11 28 0 13 -5 27 -10 31 -8 5 -7 8 1 8
6 0 10 11 8 25 -3 27 5 31 23 13 8 -8 12 -8 12 -1 0 12 -29 28 -44 24 -5 -1
-5 4 1 11 18 23 23 47 9 42 -10 -4 -12 8 -10 48 1 29 5 62 7 73 2 11 -1 24 -7
28 -6 5 -2 7 12 4 14 -3 20 -1 15 6 -4 7 0 8 11 4 11 -4 15 -3 11 4 -4 6 -13
8 -20 5 -8 -3 -15 5 -18 20 -5 27 2 30 22 12 11 -11 11 -9 2 9 -6 13 -17 22
-23 20 -7 -1 -13 8 -14 20 -1 12 2 20 7 17 4 -2 6 -11 3 -19 -6 -15 20 -15 33
0 5 4 2 5 -6 0 -11 -6 -13 -4 -7 11 4 10 8 24 9 29 1 6 7 13 12 17 6 5 5 8 -3
8 -7 0 -11 4 -8 8 2 4 1 14 -4 22 -6 10 -8 3 -6 -23 4 -42 -5 -54 -25 -31 -10
12 -10 15 2 12 8 -2 14 6 15 22 2 44 4 46 24 21 11 -13 20 -18 20 -13 0 6 -4
14 -10 17 -5 3 -10 11 -10 17 0 7 5 6 14 -1 10 -8 16 -9 21 -1 4 6 1 9 -6 8
-6 -2 -14 3 -16 10 -3 6 1 12 8 12 8 0 5 6 -7 16 -10 8 -13 13 -6 9 7 -4 12 0
12 10 0 9 -4 13 -10 10 -5 -3 -10 -1 -10 4 0 11 15 15 35 11 5 -1 7 2 3 6 -4
4 -3 12 2 19 7 8 5 12 -5 12 -8 0 -12 -4 -9 -8 2 -4 1 -10 -4 -13 -13 -8 -11
27 2 43 9 12 8 13 -4 7 -9 -4 -8 -1 2 7 18 14 25 33 10 23 -4 -2 -14 -1 -22 5
-11 6 -12 9 -2 9 7 0 10 5 6 12 -4 7 -3 8 5 4 6 -4 9 -12 6 -17 -3 -5 1 -6 10
-2 13 5 14 7 3 14 -9 6 -10 11 -2 17 13 8 15 42 2 42 -5 0 -8 -7 -6 -16 2 -10
-4 -19 -12 -21 -13 -4 -13 -3 0 6 12 8 12 11 1 11 -11 0 -11 3 -1 15 10 12 10
15 -1 15 -12 0 -12 2 0 9 8 5 11 16 8 26 -4 9 -3 14 3 10 6 -3 10 -1 10 5 0 6
6 8 13 5 6 -4 4 0 -5 8 -23 18 -12 29 16 16 18 -9 19 -8 5 3 -9 7 -16 21 -16
31 0 20 13 23 20 5 3 -7 4 -3 4 9 -1 18 -4 20 -19 12 -10 -6 -16 -14 -13 -18
2 -5 -3 -15 -13 -22 -15 -12 -16 -12 -6 1 6 8 10 25 9 37 -1 11 3 19 9 17 14
-4 52 24 43 32 -3 4 1 21 9 38 11 24 12 27 1 14 -8 -10 -16 -15 -19 -13 -3 3
-4 -6 -3 -20 2 -16 -1 -23 -7 -19 -6 4 -8 2 -4 -4 3 -6 2 -14 -4 -17 -6 -4
-10 -3 -9 2 4 21 -2 34 -13 27 -7 -4 -8 -3 -4 4 4 6 13 9 21 5 8 -3 15 0 15 6
0 6 -5 11 -11 11 -5 0 3 12 18 26 15 14 23 23 17 20 -7 -3 -14 4 -17 16 -4 16
-3 18 6 9 6 -6 15 -11 21 -11 5 0 -1 9 -14 20 -13 11 -19 20 -14 20 6 0 15 -5
20 -10 7 -7 11 -6 11 5 0 8 -6 15 -13 15 -7 0 -16 5 -20 12 -5 7 -3 8 6 3 9
-6 12 -4 8 7 -4 9 0 15 8 15 8 0 13 -6 10 -13 -3 -8 0 -11 10 -7 10 4 12 9 4
18 -5 6 -6 16 -2 20 4 5 2 5 -5 1 -6 -3 -15 -1 -19 5 -4 7 -3 9 3 6 11 -7 28
20 24 37 -1 4 4 14 10 22 11 13 6 18 -14 15 -5 -1 -6 3 -2 9 3 6 11 8 16 4 6
-3 13 3 16 15 3 11 10 18 15 15 5 -3 2 -14 -8 -25 -9 -10 -13 -19 -8 -19 14 0
35 38 24 45 -5 3 -6 13 -3 23 6 15 5 16 -13 2 -14 -11 -16 -11 -7 0 10 11 9
18 -4 34 -10 12 -11 15 -3 9 16 -14 34 -18 26 -5 -2 4 -1 14 3 21 6 9 11 10
15 2 4 -6 3 -11 -2 -11 -5 0 -9 -7 -9 -15 0 -12 4 -11 19 4 19 21 24 36 9 26
-6 -3 -9 3 -8 14 1 16 4 18 17 8 8 -6 12 -8 8 -3 -4 5 0 15 9 24 14 14 14 17
-1 27 -20 15 -21 26 -1 19 11 -4 13 -2 9 9 -3 10 4 22 20 32 17 11 23 22 19
33 -6 15 -5 16 13 2 18 -14 18 -14 5 3 -12 15 -9 21 12 18 4 0 7 3 7 9 0 5 -5
10 -11 10 -5 0 -7 5 -3 12 5 7 3 8 -5 4 -7 -5 -10 -10 -7 -13 6 -6 -38 -43
-51 -43 -4 0 0 5 10 11 9 6 14 15 11 21 -5 7 -2 8 6 3 10 -6 12 -4 7 8 -4 10
-2 16 6 14 7 -1 12 7 12 17 0 11 6 21 14 24 9 3 12 0 9 -10 -4 -8 -2 -21 3
-29 7 -11 9 -11 9 -1 0 7 4 11 9 7 5 -3 13 -1 16 5 4 6 1 9 -6 8 -6 -2 -14 3
-16 10 -3 7 1 11 8 10 7 -2 14 3 15 10 1 6 3 15 4 20 1 4 2 11 1 16 -1 5 6 6
16 2 10 -4 5 4 -12 18 -19 15 -24 24 -14 22 10 -1 24 -8 33 -15 11 -9 16 -10
16 -2 0 6 -5 11 -11 11 -6 0 -7 5 -2 13 8 12 13 32 15 54 1 9 5 10 15 2 7 -6
13 -8 13 -3 0 5 5 2 11 -6 8 -12 9 -10 4 9 -6 18 -4 22 6 15 12 -6 12 -5 0 9
-11 14 -11 20 0 35 7 9 14 18 15 20 1 1 9 0 18 -4 9 -3 13 -11 9 -18 -3 -6 -2
-7 3 -3 5 5 9 12 9 15 0 15 17 32 26 27 5 -4 9 -2 9 3 0 6 -7 13 -16 16 -10 4
-13 2 -8 -6 5 -7 3 -8 -6 -3 -9 6 -11 4 -5 -5 6 -9 4 -11 -5 -5 -9 6 -11 4 -5
-6 6 -11 5 -12 -6 -1 -11 10 -9 15 9 28 12 8 20 19 18 23 -6 10 35 8 50 -2 15
-9 24 2 17 20 -4 11 -2 14 8 11 8 -3 14 -10 14 -15 0 -6 3 -14 7 -18 9 -9 5
16 -5 33 -5 7 -2 14 7 18 8 3 12 13 10 22 -5 15 -4 15 9 -1 13 -16 15 -16 21
-2 3 9 2 13 -4 10 -6 -3 -10 -2 -10 4 0 19 19 21 29 4 9 -16 10 -16 8 3 0 12
-8 21 -17 21 -8 0 -24 1 -35 2 l-20 2 20 8 c12 5 26 4 34 -3 8 -6 16 -10 18
-8 9 6 23 1 18 -8 -3 -6 1 -7 10 -3 13 4 14 8 4 14 -21 12 -19 38 2 34 10 -2
23 4 29 13 5 10 10 12 10 4 0 -6 3 -11 8 -11 23 4 42 -2 37 -11 -5 -8 -12 -7
-23 2 -15 12 -16 11 -3 -5 10 -13 17 -14 27 -6 15 13 7 42 -10 32 -6 -3 -7 -2
-3 3 5 5 12 9 15 9 9 0 57 49 55 55 -1 3 7 6 17 6 10 0 17 -3 14 -7 -6 -10 28
-21 35 -12 7 11 27 11 37 1 4 -5 11 -8 16 -8 5 0 2 7 -6 16 -9 8 -22 12 -28 8
-7 -4 -10 -4 -6 1 4 4 2 15 -5 24 -11 14 -10 14 5 2 10 -7 24 -11 32 -8 11 4
13 1 9 -11 -6 -15 -5 -15 10 -3 9 7 15 17 12 20 -2 4 2 8 10 8 11 0 11 -4 -1
-23 -12 -17 -12 -24 -3 -30 7 -4 9 -3 6 3 -4 6 0 16 8 23 12 10 16 8 23 -10 8
-22 9 -22 16 -4 8 19 8 19 15 0 7 -19 8 -19 13 1 5 18 2 21 -17 17 -14 -2 -25
2 -28 10 -4 9 0 13 11 11 9 -2 17 -4 17 -5 0 -1 14 -4 30 -6 28 -5 28 -4 11 9
-16 12 -16 14 -2 14 16 0 20 -9 17 -35 -2 -10 5 -9 23 3 24 16 26 16 32 1 3
-9 12 -16 20 -16 8 0 14 -6 14 -12 0 -9 3 -8 9 2 12 18 3 33 -16 26 -8 -3 -12
-2 -8 3 3 5 -1 11 -7 14 -7 2 1 4 19 3 18 -1 38 -7 44 -13 9 -9 16 -8 28 6 9
9 12 11 7 4 -9 -14 5 -37 25 -39 5 -1 13 -2 19 -3 5 0 6 -9 3 -18 -6 -16 -5
-16 10 -4 12 9 17 10 17 2 0 -7 4 -10 8 -7 4 2 14 1 21 -3 9 -6 10 -11 2 -15
-6 -4 -11 -3 -11 3 0 9 -37 7 -47 -3 -5 -5 6 -6 60 -7 23 -1 26 -5 23 -25 -3
-13 -8 -29 -11 -36 -4 -7 0 -5 8 4 11 14 16 15 27 5 10 -9 11 -9 6 1 -4 6 -2
12 4 12 6 0 8 5 5 10 -10 16 1 11 16 -7 8 -9 9 -14 3 -10 -6 3 -11 0 -11 -8 0
-8 4 -12 8 -9 4 2 9 1 12 -3 2 -5 2 -2 1 5 -2 6 1 12 5 12 5 0 7 10 4 23 -3
12 -3 19 0 16 4 -3 8 -14 10 -25 7 -35 19 -56 27 -45 3 6 16 13 29 16 14 2 19
0 15 -7 -5 -7 -1 -9 9 -5 24 9 21 0 -4 -14 -17 -9 -20 -8 -14 2 6 8 4 10 -5 4
-9 -6 -11 -4 -5 6 7 12 6 12 -6 1 -12 -11 -11 -15 4 -23 9 -6 14 -15 11 -21
-4 -7 -2 -8 4 -4 7 4 12 2 12 -3 0 -6 5 -11 12 -11 7 0 5 7 -5 18 -15 17 -15
18 3 19 11 1 22 -2 25 -8 4 -5 -2 -6 -12 -2 -15 6 -16 4 -5 -9 8 -10 21 -14
35 -10 12 3 20 2 17 -1 -3 -3 -18 -8 -34 -11 -38 -7 -45 -16 -10 -12 30 3 54
-9 54 -26 0 -6 -8 -4 -17 3 -17 13 -17 13 -3 -5 8 -11 13 -21 12 -23 -2 -3 0
-8 4 -11 4 -4 4 -1 0 6 -4 7 -1 12 8 12 9 0 15 3 15 8 -3 19 2 32 12 32 8 0 8
-4 0 -14 -8 -10 -8 -16 2 -25 8 -6 18 -7 22 -3 5 4 4 1 0 -7 -6 -11 -4 -13 8
-8 12 5 15 0 11 -29 -2 -19 0 -34 6 -34 5 0 9 3 7 8 -1 4 2 7 8 7 5 0 8 -6 7
-14 -2 -8 1 -10 10 -5 9 5 8 2 -2 -11 -8 -10 -10 -16 -4 -12 7 4 11 -5 12 -24
1 -41 8 -46 32 -24 20 18 21 18 14 0 -5 -13 -4 -16 4 -11 7 4 12 2 12 -4 0 -6
-6 -10 -12 -9 -27 3 -39 -1 -32 -12 5 -8 8 -8 14 0 5 9 11 7 21 -5 9 -12 10
-15 2 -10 -7 4 -13 3 -13 -3 0 -5 14 -8 30 -6 17 2 28 0 24 -6 -3 -5 -9 -7
-13 -5 -4 3 -12 1 -19 -3 -9 -5 -5 -12 13 -21 22 -12 30 -28 26 -53 -1 -5 3
-6 9 -2 6 4 8 -6 6 -24 -2 -17 0 -28 5 -25 4 2 13 -5 19 -16 6 -11 8 -20 4
-20 -3 0 4 -8 17 -19 18 -15 21 -22 12 -33 -10 -11 -8 -14 10 -15 12 -1 17 1
12 5 -13 9 -16 42 -4 42 9 0 13 -26 10 -67 -1 -11 3 -24 8 -28 7 -4 8 0 4 11
-6 15 -4 15 13 -2 24 -22 10 -37 -20 -23 -19 9 -20 9 -3 -4 20 -16 23 -32 5
-21 -7 4 -9 3 -5 -1 12 -14 60 -18 52 -5 -3 6 -11 8 -16 5 -5 -4 -9 -4 -9 -1
0 3 9 10 20 16 16 9 18 8 14 -5 -4 -9 -1 -15 7 -15 8 -1 3 -7 -11 -15 -23 -13
-15 -21 15 -15 5 1 7 -2 3 -5 -4 -4 -3 -17 3 -28 6 -11 7 -17 1 -13 -5 3 -9
-12 -9 -37 0 -23 -2 -48 -4 -56 -2 -7 2 -15 9 -17 7 -1 8 0 2 3 -6 3 -7 11 0
22 5 10 7 20 5 23 -2 2 6 5 18 5 19 2 20 1 5 -8 -10 -6 -18 -15 -18 -21 0 -7
4 -7 13 1 10 8 14 7 14 -4 0 -8 -5 -11 -10 -8 -5 3 -7 0 -5 -8 3 -8 14 -13 24
-11 18 3 18 3 -1 -12 -11 -8 -21 -10 -23 -5 -2 5 -8 9 -14 9 -6 0 -4 -8 5 -18
10 -10 15 -21 12 -24 -3 -2 2 -5 10 -5 8 0 12 4 9 9 -3 4 -1 8 4 8 5 0 10 -12
10 -26 0 -18 -3 -22 -9 -13 -7 11 -9 10 -9 -3 0 -16 11 -22 32 -19 3 0 5 -7 3
-17 -1 -9 -10 -16 -19 -16 -16 2 -16 0 1 -19 15 -17 15 -19 2 -15 -9 4 -16 1
-16 -7 0 -10 7 -11 26 -4 l26 9 -24 -20 c-13 -11 -18 -20 -12 -20 7 0 9 -5 5
-11 -3 -6 0 -15 7 -20 12 -8 12 -11 -1 -19 -8 -5 -10 -10 -5 -10 6 0 17 5 25
10 13 9 13 11 0 20 -8 5 -11 10 -6 10 5 0 3 7 -4 15 -7 8 -8 15 -3 15 15 0 32
-46 26 -69 -3 -11 -10 -18 -16 -14 -6 4 -7 1 -3 -6 5 -7 14 -10 22 -7 8 3 11
0 7 -9 -3 -8 -9 -12 -14 -9 -5 3 -6 -2 -3 -10 3 -9 11 -13 18 -9 6 3 8 3 4 -2
-4 -4 -4 -13 2 -19 5 -7 5 -17 -2 -26 -8 -13 -9 -12 -5 2 7 19 -19 33 -29 16
-4 -6 -3 -8 3 -5 6 4 14 -4 17 -18 3 -13 12 -23 19 -21 6 1 8 1 4 -2 -4 -2 -2
-11 5 -20 10 -14 10 -15 -2 -4 -19 17 -26 15 -27 -8 -1 -11 3 -20 8 -20 6 0 7
4 4 10 -4 6 1 7 11 3 11 -4 13 -8 6 -11 -7 -2 -12 -13 -12 -25 0 -18 -2 -19
-10 -7 -7 12 -9 10 -7 -7 0 -12 4 -20 8 -17 4 2 10 0 13 -5 4 -5 2 -12 -4 -16
-13 -8 -13 -25 1 -25 5 0 7 5 3 12 -5 7 -3 8 5 4 7 -5 10 -11 7 -14 -9 -8 15
-32 26 -26 6 4 5 -3 -1 -15 -11 -20 -8 -25 12 -22 5 1 6 -3 2 -9 -3 -5 0 -10
7 -10 9 0 9 -3 -2 -10 -8 -5 -11 -10 -5 -10 5 0 4 -5 -3 -12 -18 -18 -15 -38
6 -33 9 3 4 -1 -11 -8 l-28 -13 23 -12 c13 -6 17 -11 11 -11 -15 -1 -18 -31
-4 -31 5 0 11 -7 15 -15 4 -12 2 -13 -12 -6 -17 9 -18 6 -15 -32 8 -107 8
-112 -5 -109 -8 1 -11 -2 -7 -8 3 -6 11 -8 16 -5 5 4 9 2 9 -4 0 -5 -6 -12
-12 -14 -10 -4 -10 -6 0 -6 7 -1 10 -5 7 -11 -3 -5 -1 -10 5 -10 7 0 10 7 7
15 -4 8 -1 17 6 21 7 4 9 4 5 -1 -4 -4 -3 -14 3 -22 9 -10 8 -13 -1 -13 -7 0
-10 -7 -6 -16 5 -14 4 -15 -8 -5 -11 9 -16 9 -22 0 -4 -7 -3 -10 2 -6 5 3 9
-12 9 -33 0 -21 -3 -36 -7 -34 -4 3 -5 -2 -1 -11 4 -12 8 -13 13 -5 5 8 9 7
13 -4 4 -9 3 -15 -1 -15 -21 3 -24 -3 -6 -15 19 -15 19 -15 -1 -33 -11 -10
-14 -11 -7 -4 12 15 17 40 5 28 -3 -4 -12 -2 -20 4 -9 9 -13 8 -13 0 0 -6 5
-11 11 -11 6 0 8 -7 5 -15 -4 -10 2 -19 17 -25 20 -8 20 -9 -8 -10 -24 -1 -26
-3 -11 -9 17 -7 17 -8 2 -24 -10 -9 -13 -17 -7 -17 6 0 11 -8 11 -17 0 -13 -3
-14 -12 -5 -7 7 -17 12 -23 12 -5 0 -2 -5 8 -11 9 -5 17 -15 17 -20 0 -6 -5
-7 -12 -3 -7 4 -8 3 -4 -5 4 -6 3 -18 -3 -25 -8 -9 -7 -13 3 -13 8 0 17 11 21
25 3 13 8 22 11 20 10 -11 -17 -58 -33 -59 -14 0 -13 -2 5 -9 29 -12 28 -18
-2 -13 -13 3 -27 -1 -31 -7 -5 -9 -2 -10 13 -6 12 4 23 2 28 -5 4 -7 3 -9 -4
-5 -7 4 -10 -5 -8 -29 2 -19 0 -33 -4 -30 -5 3 -7 14 -5 25 2 11 -1 23 -7 26
-6 4 -8 3 -4 -4 3 -5 0 -13 -6 -15 -10 -4 -9 -6 1 -6 11 -1 11 -4 0 -18 -8 -9
-9 -14 -3 -10 7 4 15 0 18 -9 4 -11 2 -15 -8 -11 -15 6 -16 -17 -1 -30 4 -4 5
-3 2 3 -3 6 1 11 10 11 11 0 6 -9 -16 -29 -32 -29 -33 -35 -2 -19 13 7 18 6
18 -4 0 -8 -4 -12 -8 -9 -4 2 -10 0 -14 -6 -3 -5 -2 -10 2 -10 5 0 9 -20 9
-44 -1 -24 -4 -42 -8 -40 -5 3 -8 -2 -8 -10 0 -9 -4 -16 -10 -16 -5 0 -10 -5
-10 -11 0 -6 9 -8 21 -4 15 5 19 4 14 -5 -4 -6 -16 -10 -26 -7 -10 3 -22 0
-26 -5 -3 -7 -1 -8 5 -4 7 4 12 1 12 -8 0 -9 6 -16 13 -16 9 0 8 -3 -2 -9 -11
-7 -11 -9 0 -14 9 -4 8 -6 -5 -6 -12 -1 -16 4 -13 14 8 19 -12 30 -26 16 -9
-9 -8 -11 4 -6 13 5 15 0 11 -24 -2 -17 -8 -29 -12 -26 -10 6 -7 -21 3 -31 15
-15 6 -26 -10 -13 -10 7 -15 9 -11 5 4 -5 2 -16 -5 -25 -11 -14 -10 -14 5 -2
15 11 18 11 22 0 9 -29 2 -49 -16 -49 -10 0 -18 -5 -18 -11 0 -6 9 -8 22 -4
14 4 18 3 11 -2 -12 -9 -13 -30 -1 -49 4 -6 1 -11 -7 -11 -8 0 -12 4 -9 9 7
11 -7 10 -25 -1 -8 -5 -15 -24 -17 -42 -6 -55 -9 -74 -18 -88 -5 -7 -4 -17 2
-23 6 -6 8 -17 5 -24 -6 -17 13 -19 23 -2 5 7 2 8 -7 3 -11 -6 -12 -5 -2 5 16
18 29 5 15 -13 -7 -8 -8 -17 -4 -21 4 -4 2 -6 -3 -4 -6 2 -11 -1 -13 -6 -4
-14 27 -16 35 -4 3 7 1 8 -5 4 -8 -5 -10 -2 -6 8 9 23 24 20 19 -4 -2 -11 1
-22 6 -25 5 -4 7 -10 4 -15 -3 -4 1 -13 9 -19 15 -13 10 -51 -7 -51 -5 0 -3
-8 5 -17 9 -10 14 -26 13 -35 -3 -14 0 -16 15 -8 29 16 48 11 20 -5 l-25 -14
33 4 c22 2 30 0 26 -7 -5 -7 -2 -9 7 -6 10 4 15 -1 17 -15 1 -16 -1 -18 -7 -8
-5 8 -14 10 -21 6 -9 -6 -11 -4 -5 5 6 9 4 11 -5 5 -9 -6 -11 -4 -5 6 7 12 5
12 -6 1 -12 -11 -12 -14 1 -22 8 -5 17 -7 21 -4 4 2 11 -5 14 -17 6 -17 9 -19
17 -8 8 11 8 10 4 -4 -3 -10 -6 -21 -6 -23 0 -3 -5 -2 -11 2 -6 3 -3 -5 6 -20
15 -23 33 -31 58 -27 5 1 6 -3 3 -8 -4 -5 0 -12 6 -14 10 -4 10 -6 1 -6 -7 -1
-13 -5 -13 -11 0 -5 8 -7 18 -4 16 5 16 5 -1 -6 -9 -6 -23 -8 -30 -5 -6 4 -4
0 7 -9 10 -8 19 -26 20 -39 1 -21 4 -23 23 -16 16 6 21 4 19 -7 -1 -9 -9 -20
-17 -25 -11 -7 -9 -9 9 -9 12 0 22 -5 22 -11 0 -5 5 -7 10 -4 6 4 10 3 9 -2
-4 -22 2 -34 14 -27 6 4 9 4 5 -1 -4 -4 -3 -16 3 -26 7 -14 7 -19 -2 -17 -6 2
-13 -5 -14 -14 -2 -10 2 -16 7 -15 6 1 13 -4 16 -12 3 -9 0 -11 -9 -6 -8 5
-11 4 -6 -1 5 -5 12 -9 15 -9 4 0 13 -4 21 -9 10 -6 12 -5 7 2 -8 13 54 9 76
-4 7 -4 8 -3 4 4 -4 7 -14 12 -22 12 -8 0 -14 5 -14 10 0 6 6 10 14 10 8 0 18
5 22 11 4 8 0 9 -15 4 -12 -4 -21 -2 -21 4 0 6 7 11 15 11 13 0 14 4 4 23 -11
19 -10 20 3 9 13 -10 17 -10 22 4 8 21 8 24 -5 24 -5 0 -7 -5 -3 -12 5 -7 3
-8 -6 -3 -10 6 -7 12 11 26 13 10 20 21 16 25 -8 9 11 34 27 34 6 0 2 -7 -8
-15 -22 -16 -21 -16 12 -20 17 -2 20 1 12 10 -8 9 -8 15 0 20 6 3 8 11 4 16
-3 5 -9 7 -13 5 -4 -3 -8 1 -8 9 0 18 8 19 25 5 6 -6 10 -7 7 -4 -3 4 1 14 8
22 9 13 9 14 -1 8 -6 -4 -12 -3 -12 3 0 5 7 14 16 19 14 8 14 10 -1 22 -13 11
-15 10 -10 -2 3 -8 -3 -22 -13 -31 -15 -14 -19 -14 -19 -2 0 8 4 12 9 9 4 -3
9 0 9 5 3 20 5 26 17 49 7 12 11 26 8 30 -2 4 4 9 15 9 17 2 18 0 4 -14 -9 -8
-13 -18 -10 -21 7 -7 34 31 29 40 -3 5 -1 8 5 8 5 0 8 8 6 18 -1 10 -9 16 -21
14 -15 -3 -14 0 6 15 14 10 29 17 33 15 5 -1 6 2 2 8 -4 7 -12 7 -25 0 -13 -7
-21 -7 -26 2 -4 7 -3 8 5 4 6 -4 14 0 17 8 5 12 11 13 27 5 19 -9 19 -8 -2 9
-16 13 -20 21 -12 26 6 4 15 5 20 1 5 -3 13 -1 16 5 4 6 3 10 -2 9 -23 -4 -43
2 -38 11 4 6 12 10 18 9 28 -3 35 2 33 24 -1 13 -6 28 -10 35 -5 8 -2 10 11 5
10 -3 15 -3 11 2 -4 4 -2 15 5 24 11 14 10 15 -7 1 -18 -14 -19 -13 -13 2 3
10 2 20 -4 24 -6 4 -6 11 2 20 6 8 8 14 4 14 -4 0 -2 7 5 15 10 12 10 15 0 15
-8 0 -10 3 -6 7 4 5 14 -1 23 -12 14 -19 14 -19 11 -1 -2 13 6 24 22 33 l25
13 -25 0 c-52 0 -57 2 -51 29 4 24 5 24 10 5 6 -22 35 -25 55 -4 8 8 6 9 -8 4
-15 -6 -17 -4 -11 6 6 10 4 12 -7 7 -14 -5 -15 -1 -8 24 5 16 6 29 3 29 -3 0
0 7 7 15 7 8 9 22 6 32 -6 16 -6 16 11 0 18 -15 19 -15 18 9 -1 14 -8 30 -16
35 -11 7 -11 9 3 9 9 0 20 5 24 12 5 7 3 8 -6 3 -10 -6 -12 -4 -7 9 4 10 7 20
7 22 0 3 5 2 12 -2 7 -5 8 -3 3 5 -5 9 -10 10 -18 2 -6 -6 -15 -11 -20 -11 -6
0 3 12 19 27 16 16 25 25 20 20 -6 -4 -14 -7 -19 -7 -14 0 4 21 27 30 18 7 16
8 -12 8 -18 -1 -36 3 -40 7 -4 4 3 5 16 2 15 -3 22 -1 22 10 0 8 -4 11 -10 8
-5 -3 -10 -2 -10 2 0 14 40 34 53 26 7 -4 5 2 -3 13 -26 33 -37 43 -44 39 -3
-3 -4 -2 -1 2 3 4 16 8 28 10 17 2 19 1 7 -7 -13 -8 -12 -10 4 -10 12 0 16 5
13 15 -4 8 -2 17 3 20 5 3 7 12 4 20 -4 8 -10 13 -14 10 -16 -10 -18 24 -2 37
8 7 13 8 9 2 -4 -7 1 -18 11 -25 15 -12 16 -12 5 2 -10 12 -10 18 0 29 10 10
9 11 -2 5 -12 -7 -13 -1 -8 31 4 26 3 34 -3 24 -8 -13 -11 -13 -22 -1 -7 8 -8
11 -3 8 6 -3 18 8 28 24 14 26 15 31 2 36 -13 4 -13 8 -3 20 15 18 20 45 7 37
-5 -3 -9 0 -9 6 0 6 -5 8 -12 4 -7 -4 -8 -3 -4 4 4 7 15 12 24 13 11 1 8 4 -8
9 -16 5 -19 8 -8 9 9 1 20 6 24 13 4 7 3 8 -4 4 -8 -5 -12 2 -13 21 0 15 -1
56 -2 90 -2 34 1 59 5 57 5 -3 5 -10 2 -16 -4 -7 -2 -8 4 -4 15 9 3 36 -17 37
-12 0 -12 2 4 9 11 5 15 9 8 9 -6 1 -9 10 -5 23 4 16 2 19 -8 13 -9 -5 -11 -4
-6 4 4 6 12 9 17 6 5 -4 9 0 9 9 0 8 5 16 12 18 7 3 5 7 -6 11 -9 4 -15 3 -11
-2 3 -5 0 -13 -6 -17 -7 -4 -9 -3 -5 4 3 5 0 13 -6 15 -10 4 -9 6 1 6 10 1 11
4 2 15 -9 11 -9 16 0 22 7 4 9 3 6 -3 -4 -6 -1 -13 6 -16 8 -3 13 3 13 14 0
12 -8 19 -21 20 -19 0 -19 1 3 9 12 5 22 12 22 14 0 3 -6 3 -13 0 -10 -3 -12
5 -9 32 3 28 1 35 -8 29 -9 -5 -11 -4 -6 3 4 7 14 12 22 12 8 0 12 5 9 10 -4
6 -10 8 -15 5 -5 -3 -12 0 -16 6 -4 8 -3 9 4 5 8 -5 12 1 12 14 0 14 4 19 13
14 8 -5 8 -2 -2 9 -9 12 -10 17 -2 17 7 0 9 5 6 11 -9 13 -15 7 -20 -21 -2
-12 -7 -25 -10 -29 -4 -3 -3 8 0 24 4 17 7 37 7 45 1 8 6 18 12 22 8 5 7 8 -1
8 -7 0 -13 4 -13 10 0 5 6 8 13 6 6 -1 9 -1 5 1 -5 3 -8 9 -8 14 0 6 6 7 13 3
8 -5 8 -2 -2 9 -14 18 -26 23 -16 8 3 -5 1 -12 -4 -15 -15 -10 -6 23 13 45 17
20 17 21 -6 13 -21 -6 -22 -6 -8 12 8 10 20 22 25 26 7 5 6 8 0 8 -6 0 -16 -5
-23 -12 -9 -9 -12 -9 -12 -1 0 7 5 15 10 18 7 4 6 14 -2 28 -10 20 -10 21 6 8
14 -12 16 -12 10 3 -3 9 -14 16 -23 16 -13 0 -14 2 -1 9 8 6 17 8 20 6 4 -2 7
2 7 9 0 7 -6 13 -13 13 -7 0 -11 -3 -9 -7 2 -4 -2 -7 -10 -7 -8 0 -13 3 -10 5
3 3 -3 10 -12 17 -13 9 -13 14 -3 20 8 5 11 4 7 -2 -4 -6 0 -13 8 -17 8 -3 15
-1 15 5 0 6 4 8 8 5 4 -2 8 4 8 14 0 10 -4 16 -8 14 -8 -5 -12 10 -9 34 1 6
-3 12 -9 12 -6 0 -8 -5 -4 -12 4 -7 3 -8 -5 -4 -6 4 -9 12 -6 17 4 5 1 9 -4 9
-6 0 -10 6 -8 13 1 6 -3 11 -10 10 -8 -2 -8 5 2 23 13 26 10 58 -5 49 -9 -6
-7 11 5 38 5 12 2 23 -11 33 -18 14 -18 14 1 12 22 -3 29 24 7 28 -7 1 -8 0
-2 -3 5 -2 10 -9 10 -15 0 -7 -5 -7 -13 1 -8 6 -18 7 -23 3 -4 -4 -3 0 3 8 6
8 9 23 8 32 -2 10 1 20 6 24 5 3 9 0 9 -7 0 -7 3 -9 6 -6 9 8 -15 37 -30 37
-6 0 -5 -4 3 -9 7 -5 9 -11 5 -13 -5 -3 -20 6 -34 20 -14 14 -16 19 -6 11 15
-11 20 -11 23 -2 4 10 10 10 26 2 20 -9 20 -9 5 4 -10 8 -14 17 -10 21 4 4 0
6 -8 4 -9 -2 -15 5 -16 17 -1 11 -2 25 -4 30 -1 6 -2 14 -1 18 1 5 -4 5 -10 2
-8 -5 -8 -10 0 -18 6 -6 11 -16 11 -21 0 -6 -5 -3 -11 7 -9 15 -13 16 -27 5
-9 -7 -7 0 6 16 12 15 19 32 16 37 -3 5 3 9 13 10 11 0 13 3 5 6 -7 3 -19 -1
-28 -7 -12 -11 -13 -10 -8 5 5 11 4 16 -3 12 -5 -3 -10 0 -10 8 0 8 5 15 10
15 5 0 6 7 3 16 -3 8 -2 12 4 9 6 -3 10 -1 10 4 0 6 -7 11 -15 11 -8 0 -15 -7
-15 -15 0 -8 -4 -15 -10 -15 -5 0 -9 5 -7 12 4 20 21 36 32 30 6 -3 4 2 -4 11
-8 11 -22 15 -35 12 -12 -3 -15 -2 -9 1 7 3 13 12 13 20 0 9 -5 12 -12 8 -7
-4 -8 -3 -4 4 4 6 14 8 24 5 13 -4 13 -2 -3 10 -15 11 -22 12 -27 4 -4 -7 -8
-7 -8 -2 1 13 26 46 31 40 3 -2 5 4 5 14 0 11 -6 17 -13 14 -7 -3 -11 -9 -8
-13 2 -4 -5 -16 -18 -26 l-22 -19 19 23 c12 13 14 22 7 22 -7 0 -10 4 -6 9 3
5 1 12 -4 16 -5 3 -9 14 -8 25 1 22 12 16 12 -7 0 -9 7 -19 15 -21 13 -4 13
-3 2 11 -11 13 -10 16 5 20 17 4 17 5 0 6 -10 0 -15 6 -12 11 4 6 3 10 -2 9
-21 -4 -43 2 -43 12 0 5 5 7 12 3 7 -5 8 -3 4 5 -5 7 -14 10 -22 7 -9 -3 -11
0 -7 11 4 11 2 14 -5 9 -7 -4 -12 -2 -12 3 0 6 5 11 12 11 6 0 3 7 -8 16 -18
14 -18 15 4 4 13 -7 26 -9 30 -6 3 3 0 6 -8 6 -10 0 -10 3 0 15 7 8 11 15 9
16 -39 8 -40 7 -27 -8 12 -15 11 -15 -10 -2 -12 8 -20 19 -18 26 3 7 -2 16
-11 21 -14 8 -13 10 1 15 11 5 15 3 10 -5 -4 -7 -3 -8 4 -4 17 10 15 23 -4 30
-8 3 -12 2 -9 -4 3 -5 0 -8 -7 -5 -9 4 -13 22 -12 55 1 44 0 48 -12 33 -7 -10
-14 -14 -14 -9 0 5 -6 4 -13 -2 -10 -8 -13 -6 -14 11 -1 12 1 17 5 12 4 -6 14
-11 22 -13 8 -2 12 0 8 4 -4 4 -2 14 5 23 11 14 10 14 -5 2 -13 -9 -18 -10
-18 -2 0 7 -4 10 -8 7 -4 -2 -9 7 -10 22 -4 57 -7 70 -13 66 -8 -5 -23 26 -20
44 1 6 -3 12 -9 12 -6 0 -9 -4 -6 -9 3 -5 -3 -11 -14 -14 -11 -3 -18 0 -17 7
1 6 -4 10 -11 8 -8 -1 -11 2 -7 8 5 8 11 8 20 0 10 -8 12 -5 13 15 0 14 -4 25
-9 25 -5 0 -8 3 -8 8 4 24 -3 33 -21 27 -15 -5 -18 -3 -14 9 3 9 10 14 14 11
5 -3 12 0 16 6 4 8 3 9 -4 5 -7 -4 -12 -2 -12 5 0 7 -7 4 -15 -7 -15 -19 -15
-19 -30 0 -10 13 -15 15 -15 6 0 -7 -3 -10 -6 -7 -4 4 -1 13 6 22 10 12 9 16
-4 21 -15 6 -15 8 1 20 17 13 17 14 -2 7 -11 -3 -24 -11 -28 -17 -6 -7 -7 -5
-4 6 3 9 -3 24 -13 33 -11 10 -18 22 -17 29 1 6 -7 10 -18 8 -12 -2 -16 1 -9
5 7 5 4 14 -8 26 -10 9 -18 13 -18 7 0 -5 -5 -10 -12 -10 -9 0 -9 3 0 12 8 8
6 18 -9 40 -11 15 -27 28 -34 28 -8 0 -17 9 -20 21 -4 12 -12 18 -21 15 -22
-9 -16 2 9 15 12 6 19 8 15 4 -12 -13 11 -45 28 -38 13 5 11 11 -11 33 -18 18
-24 33 -19 42 6 10 4 10 -9 -1 -13 -11 -17 -11 -17 -1 0 8 -3 10 -7 6 -5 -4 1
-14 11 -22 11 -8 15 -14 10 -14 -6 0 -14 3 -18 8 -4 4 -11 7 -14 8 -21 3 -42
18 -42 30 0 8 -5 14 -11 14 -5 0 -8 4 -5 8 2 4 -4 9 -15 10 -43 4 -49 6 -49
14 0 11 7 10 30 -2 21 -11 36 2 24 21 -4 8 -9 7 -15 -2 -4 -7 -11 -10 -15 -6
-4 3 -1 14 7 24 12 14 11 14 -14 -2 -15 -10 -30 -15 -34 -11 -3 3 -1 6 6 6 7
0 9 5 5 12 -4 6 -3 8 4 4 6 -3 13 -2 16 3 4 5 -12 8 -34 6 -36 -3 -40 -1 -35
15 3 10 1 21 -4 24 -6 4 -8 14 -5 24 5 13 4 14 -4 3 -11 -16 -44 -8 -40 10 2
6 -3 13 -10 15 -7 1 -8 0 -2 -3 16 -7 1 -23 -15 -16 -11 3 -13 1 -9 -10 3 -9
14 -14 25 -12 10 2 19 -1 19 -6 0 -6 4 -8 8 -5 4 2 13 2 19 -2 8 -5 5 -15 -8
-32 -17 -21 -19 -22 -10 -3 15 31 14 38 -6 22 -14 -12 -16 -12 -9 0 6 9 4 12
-5 9 -8 -3 -14 -10 -14 -16 0 -5 -3 -13 -6 -17 -4 -3 -6 5 -5 17 1 14 -4 22
-12 20 -8 -1 -11 1 -8 6 3 5 -10 17 -29 27 -30 17 -32 20 -17 31 14 10 21 10
41 -3 13 -8 21 -11 17 -5 -3 5 1 15 9 22 8 7 12 16 10 21 -3 4 -896 9 -1984 9
l-1979 0 0 -49z m3947 23 c-8 -10 -16 -11 -30 -3 -11 5 -24 7 -29 4 -5 -3 -11
-2 -14 3 -2 4 15 8 40 8 35 1 42 -2 33 -12z m-3919 -14 c0 -5 -2 -10 -4 -10
-3 0 -8 5 -11 10 -3 6 -1 10 4 10 6 0 11 -4 11 -10z m3855 -48 c-3 -3 -11 0
-18 7 -9 10 -8 11 6 5 10 -3 15 -9 12 -12z m265 -158 c0 -2 -9 0 -20 6 -11 6
-20 13 -20 16 0 2 9 0 20 -6 11 -6 20 -13 20 -16z m60 -58 c-7 -7 -13 -7 -20
0 -6 6 -3 10 10 10 13 0 16 -4 10 -10z m68 -21 c-3 -3 -9 2 -12 12 -6 14 -5
15 5 6 7 -7 10 -15 7 -18z m-4180 -89 c14 5 14 4 3 -4 -16 -12 -51 1 -51 19 0
6 -4 8 -9 4 -10 -6 -24 11 -28 35 -1 8 14 -2 33 -22 23 -25 40 -35 52 -32z
m-33 54 c3 -5 1 -10 -4 -10 -6 0 -11 5 -11 10 0 6 2 10 4 10 3 0 8 -4 11 -10z
m4230 -20 c3 -6 -1 -7 -9 -4 -18 7 -21 14 -7 14 6 0 13 -4 16 -10z m-3809 -35
c-4 -25 -20 -35 -36 -24 -12 8 -11 9 5 7 11 -2 20 3 21 10 2 18 4 22 8 22 2 0
3 -7 2 -15z m-141 -15 c-3 -5 -1 -11 5 -15 5 -3 10 2 10 11 0 10 3 15 6 11 4
-3 4 -14 0 -23 -5 -13 -10 -14 -18 -6 -8 8 -17 8 -31 0 -20 -10 -37 2 -37 27
1 6 5 2 11 -8 8 -13 14 -15 30 -7 11 6 16 16 13 22 -4 7 -3 8 5 4 6 -4 9 -11
6 -16z m-153 -8 c-7 -2 -10 -8 -6 -13 3 -5 1 -9 -5 -9 -5 0 -9 9 -8 19 1 12 6
17 16 13 10 -4 11 -7 3 -10z m238 0 c0 -5 -7 -9 -15 -9 -8 0 -12 4 -9 9 3 4 9
8 15 8 5 0 9 -4 9 -8z m2595 -10 c-3 -3 -11 0 -18 7 -9 10 -8 11 6 5 10 -3 15
-9 12 -12z m460 -2 c3 -5 1 -10 -4 -10 -6 0 -11 5 -11 10 0 6 2 10 4 10 3 0 8
-4 11 -10z m-2735 -22 c0 -18 -2 -20 -9 -8 -6 8 -7 18 -5 22 9 14 14 9 14 -14z
m2340 13 c0 -6 -4 -13 -10 -16 -5 -3 -10 1 -10 9 0 9 5 16 10 16 6 0 10 -4 10
-9z m440 -11 c0 -5 -7 -7 -15 -4 -8 4 -15 8 -15 10 0 2 7 4 15 4 8 0 15 -4 15
-10z m31 -17 c13 -16 12 -17 -3 -4 -17 13 -22 21 -14 21 2 0 10 -8 17 -17z
m-2751 -7 c0 -3 -4 -8 -10 -11 -5 -3 -10 -1 -10 4 0 6 5 11 10 11 6 0 10 -2
10 -4z m2840 -46 c0 -5 -2 -10 -4 -10 -3 0 -8 5 -11 10 -3 6 -1 10 4 10 6 0
11 -4 11 -10z m-2849 -14 c-7 -8 -8 -15 -2 -18 5 -1 11 -10 13 -18 2 -8 8 -19
13 -23 6 -5 5 -7 -3 -5 -8 2 -13 8 -13 13 0 6 -8 18 -17 28 -14 16 -14 19 -2
27 21 14 24 12 11 -4z m2809 -2 c0 -8 -5 -12 -10 -9 -6 4 -8 11 -5 16 9 14 15
11 15 -7z m-760 -4 c0 -5 -5 -10 -11 -10 -5 0 -7 5 -4 10 3 6 8 10 11 10 2 0
4 -4 4 -10z m870 -13 c8 2 6 -1 -5 -8 -27 -17 -28 -17 -30 10 -2 20 0 21 9 9
6 -8 18 -13 26 -11z m714 8 c-4 -8 -8 -15 -10 -15 -2 0 -4 7 -4 15 0 8 4 15
10 15 5 0 7 -7 4 -15z m-3589 -23 c-3 -3 -11 0 -18 7 -9 10 -8 11 6 5 10 -3
15 -9 12 -12z m1930 -42 c-1 -11 -10 -26 -20 -34 -12 -8 -15 -18 -10 -27 7
-11 6 -12 -7 -2 -8 7 -18 10 -21 6 -4 -3 -7 -1 -7 5 0 7 7 12 16 12 8 0 12 5
9 10 -4 6 -3 10 2 9 20 -3 34 2 28 11 -3 6 -3 15 0 20 9 15 12 12 10 -10z
m-1931 -4 c-5 -13 -34 -31 -34 -21 0 5 30 35 35 35 3 0 2 -6 -1 -14z m3682 -4
c-3 -3 -1 -11 5 -19 9 -10 8 -13 -3 -13 -8 0 -14 10 -14 24 0 14 4 22 9 19 4
-3 6 -8 3 -11z m-26 0 c0 -5 -7 -9 -15 -9 -8 0 -12 4 -9 9 3 4 9 8 15 8 5 0 9
-4 9 -8z m-655 -31 c3 -5 2 -12 -3 -15 -5 -3 -9 1 -9 9 0 17 3 19 12 6z m740
-80 c10 -20 12 -32 4 -36 -6 -4 -13 -4 -16 -1 -4 3 0 6 8 6 10 1 9 3 -3 11
-10 5 -15 16 -11 24 4 11 0 14 -13 9 -16 -5 -16 -4 -4 5 20 14 17 15 35 -18z
m-1978 -23 c-3 -8 -6 -5 -6 6 -1 11 2 17 5 13 3 -3 4 -12 1 -19z m-27 -24 c0
-8 -19 -13 -24 -6 -3 5 1 9 9 9 8 0 15 -2 15 -3z m23 -7 c3 -8 2 -20 -3 -26
-5 -9 -7 -4 -7 13 0 29 2 32 10 13z m1998 -14 c-12 -20 -14 -14 -5 12 4 9 9
14 11 11 3 -2 0 -13 -6 -23z m-621 -23 c0 -5 -2 -10 -4 -10 -3 0 -8 5 -11 10
-3 6 -1 10 4 10 6 0 11 -4 11 -10z m-7 -35 c-3 -9 -8 -14 -10 -11 -3 3 -2 9 2
15 9 16 15 13 8 -4z m-1423 -5 c0 -5 -5 -10 -11 -10 -5 0 -7 5 -4 10 3 6 8 10
11 10 2 0 4 -4 4 -10z m-1910 -40 c6 -9 10 -10 10 -4 0 7 7 15 16 18 9 3 12 2
9 -5 -4 -5 -2 -16 4 -23 8 -9 7 -13 -4 -13 -8 0 -11 5 -8 10 4 6 0 8 -9 4 -9
-3 -25 1 -36 8 -10 8 -22 12 -25 9 -3 -3 -8 -1 -11 4 -3 5 6 8 20 8 14 -1 29
-8 34 -16z m3395 0 c3 -5 1 -10 -4 -10 -6 0 -11 5 -11 10 0 6 2 10 4 10 3 0 8
-4 11 -10z m-3498 -16 c-3 -3 -12 -4 -19 -1 -8 3 -5 6 6 6 11 1 17 -2 13 -5z
m73 -4 c0 -5 -4 -10 -10 -10 -5 0 -10 5 -10 10 0 6 5 10 10 10 6 0 10 -4 10
-10z m1915 -7 c-2 -10 -4 -20 -5 -23 -1 -3 -2 -8 -1 -12 0 -4 -6 -5 -14 -2
-18 7 -18 9 -3 34 16 25 27 26 23 3z m1520 -31 c-3 -3 -11 0 -18 7 -9 10 -8
11 6 5 10 -3 15 -9 12 -12z m37 -30 c-3 -10 -1 -13 6 -8 8 5 10 1 5 -10 -4
-12 -3 -15 5 -10 7 4 12 5 12 2 0 -3 -4 -7 -10 -11 -5 -3 -16 7 -24 23 -12 23
-12 29 -1 29 7 0 11 -7 7 -15z m603 -21 c3 -5 2 -12 -3 -15 -5 -3 -9 1 -9 9 0
17 3 19 12 6z m-574 -53 c6 1 8 -2 4 -8 -3 -5 -1 -20 6 -32 19 -37 -6 -7 -30
37 -13 22 -15 31 -6 20 9 -11 21 -19 26 -17z m24 23 c-9 -8 -36 -10 -30 -2 2
4 11 8 20 8 8 0 13 -3 10 -6z m-1709 -56 c-36 -19 -45 -19 -20 0 10 8 26 14
34 15 8 0 2 -7 -14 -15z m2324 -40 c0 -8 -4 -15 -10 -15 -5 0 -7 7 -4 15 4 8
8 15 10 15 2 0 4 -7 4 -15z m-4375 -5 c3 -6 -1 -7 -9 -4 -18 7 -21 14 -7 14 6
0 13 -4 16 -10z m2029 -39 c-9 -9 -34 -9 -34 -1 0 5 9 8 20 7 10 -1 17 -3 14
-6z m2421 -131 c-3 -5 -14 -10 -23 -9 -14 0 -13 2 3 9 27 11 27 11 20 0z
m-4371 -50 c-5 -5 -10 3 -11 18 -1 22 0 24 9 8 6 -10 6 -22 2 -26z m791 20
c-2 -12 4 -24 16 -30 11 -7 19 -7 19 -1 0 5 -5 11 -10 13 -6 2 0 9 12 17 20
12 21 12 12 0 -6 -8 -8 -23 -4 -33 4 -14 9 -16 14 -8 4 7 5 16 2 20 -3 5 1 9
9 9 10 0 11 -5 4 -18 -6 -11 -5 -20 1 -24 5 -3 10 1 10 9 0 9 5 16 10 16 7 0
7 -6 0 -20 -11 -20 -1 -26 37 -21 6 1 14 -3 18 -9 4 -6 -1 -7 -11 -3 -11 4
-15 3 -11 -4 11 -18 -20 -9 -44 13 -11 10 -29 19 -39 19 -9 0 -23 5 -31 12 -8
6 -18 11 -24 11 -5 0 -11 5 -13 11 -2 6 1 11 7 11 6 0 10 3 10 8 -2 11 1 22 5
22 3 0 3 -9 1 -20z m-745 6 c0 -2 -8 -10 -17 -17 -16 -13 -17 -12 -4 4 13 16
21 21 21 13z m50 -8 c0 -11 -12 -10 -30 2 -12 7 -10 9 8 7 12 0 22 -5 22 -9z
m570 -28 c-9 -6 -19 -5 -25 1 -6 6 -5 13 5 19 9 6 19 5 25 -1 6 -6 5 -13 -5
-19z m3130 0 c0 -5 -5 -10 -11 -10 -5 0 -7 5 -4 10 3 6 8 10 11 10 2 0 4 -4 4
-10z m-2889 -23 c-10 -9 -11 -8 -5 6 3 10 9 15 12 12 3 -3 0 -11 -7 -18z m922
-22 c-3 -9 -8 -14 -10 -11 -3 3 -2 9 2 15 9 16 15 13 8 -4z m-876 -41 c-3 -3
-12 -4 -19 -1 -8 3 -5 6 6 6 11 1 17 -2 13 -5z m2883 -18 c0 -2 -7 -7 -16 -10
-8 -3 -12 -2 -9 4 6 10 25 14 25 6z m590 -41 c7 -9 8 -15 2 -15 -5 0 -12 7
-16 15 -3 8 -4 15 -2 15 2 0 9 -7 16 -15z m-3454 -64 c-4 -5 -1 -12 4 -14 6
-3 5 -4 -2 -3 -15 3 -23 26 -8 26 6 0 9 -4 6 -9z m824 -1 c0 -5 -2 -10 -4 -10
-3 0 -8 5 -11 10 -3 6 -1 10 4 10 6 0 11 -4 11 -10z m2640 -25 c0 -5 -5 -3
-10 5 -5 8 -10 20 -10 25 0 6 5 3 10 -5 5 -8 10 -19 10 -25z m-560 11 c0 -3
-4 -8 -10 -11 -5 -3 -10 -1 -10 4 0 6 5 11 10 11 6 0 10 -2 10 -4z m575 -94
c-3 -3 -11 0 -18 7 -9 10 -8 11 6 5 10 -3 15 -9 12 -12z m-3494 -26 c-17 -10
-20 -15 -10 -19 10 -3 7 -12 -15 -33 -22 -23 -25 -24 -15 -6 8 12 18 22 23 22
4 0 3 6 -3 14 -10 11 -8 17 6 25 10 6 23 10 28 10 6 0 -1 -6 -14 -13z m-1 -60
c0 -2 -8 -10 -17 -17 -16 -13 -17 -12 -4 4 13 16 21 21 21 13z m-279 -61 c3 2
5 -8 6 -23 l2 -27 -11 25 -11 25 -6 -25 -7 -25 -7 24 c-8 30 1 45 17 32 7 -6
15 -9 17 -6z m-41 -30 c0 -2 -10 -9 -22 -15 -22 -11 -22 -10 -4 4 21 17 26 19
26 11z m134 -4 c4 -5 -3 -7 -14 -4 -23 6 -26 13 -6 13 8 0 17 -4 20 -9z m63 3
c-3 -3 -12 -4 -19 -1 -8 3 -5 6 6 6 11 1 17 -2 13 -5z m-102 -14 c4 -6 1 -9
-7 -8 -7 2 -12 -3 -10 -10 1 -8 -2 -11 -8 -7 -8 5 -7 11 1 21 14 17 16 17 24
4z m62 -9 c0 -11 -5 -18 -9 -15 -4 3 -5 11 -1 19 7 21 12 19 10 -4z m3713 15
c0 -3 -4 -8 -10 -11 -5 -3 -10 -1 -10 4 0 6 5 11 10 11 6 0 10 -2 10 -4z
m-592 -68 c-1 -7 3 -23 10 -35 11 -19 10 -22 -3 -17 -8 3 -13 10 -10 14 3 5 1
11 -4 15 -6 3 -8 12 -4 20 6 18 15 20 11 3z m593 -81 c-10 -9 -11 -8 -5 6 3
10 9 15 12 12 3 -3 0 -11 -7 -18z m-2794 -49 c-3 -8 -6 -5 -6 6 -1 11 2 17 5
13 3 -3 4 -12 1 -19z m-1242 -8 c-3 -5 -1 -10 6 -10 7 0 10 -3 6 -6 -9 -9 -28
6 -22 17 4 5 8 9 11 9 3 0 2 -4 -1 -10z m1265 -4 c0 -2 -8 -10 -17 -17 -16
-13 -17 -12 -4 4 13 16 21 21 21 13z m-1260 -76 c0 -5 -5 -10 -11 -10 -5 0 -7
5 -4 10 3 6 8 10 11 10 2 0 4 -4 4 -10z m15 -20 c-3 -5 -12 -10 -18 -10 -7 0
-6 4 3 10 19 12 23 12 15 0z m3471 -107 c17 -27 17 -28 -1 -13 -17 14 -18 13
-11 -5 5 -11 9 -31 9 -45 1 -14 5 -28 10 -31 5 -3 3 -9 -5 -11 -10 -4 -14 4
-16 31 -1 20 -3 51 -5 69 -2 17 -3 32 -2 32 2 0 11 -12 21 -27z m-3243 -76
c-3 -4 -13 2 -24 14 -26 30 -24 34 5 12 13 -10 22 -22 19 -26z m117 33 c0 -5
-5 -10 -11 -10 -5 0 -7 5 -4 10 3 6 8 10 11 10 2 0 4 -4 4 -10z m40 -10 c7 12
9 10 7 -7 -1 -17 -5 -20 -19 -12 -10 5 -18 15 -18 22 0 8 4 6 10 -3 9 -13 11
-13 20 0z m217 -105 c0 -8 -4 -12 -9 -9 -5 3 -6 10 -3 15 9 13 12 11 12 -6z
m3 -31 c0 -8 -19 -13 -24 -6 -3 5 1 9 9 9 8 0 15 -2 15 -3z m2869 -30 c-6 -7
-7 -19 -3 -25 4 -7 3 -9 -4 -5 -15 9 -11 43 5 43 9 0 10 -4 2 -13z m-2920
-132 c8 -14 5 -18 -12 -19 -16 -2 -18 0 -8 6 7 5 10 14 7 20 -4 6 -5 11 -2 11
3 0 10 -8 15 -18z m676 -52 c4 -6 1 -18 -7 -27 -11 -15 -11 -16 5 -10 22 8 22
0 -1 -12 -15 -8 -18 -6 -18 14 0 13 4 21 8 19 4 -3 8 -1 8 5 0 5 -6 12 -12 14
-10 4 -10 6 -1 6 6 1 15 -4 18 -9z m2230 -10 c-3 -5 -1 -10 6 -10 7 0 10 -3 6
-6 -9 -9 -28 6 -22 17 4 5 8 9 11 9 3 0 2 -4 -1 -10z m-3141 -49 c-4 -3 -9 0
-11 7 -4 10 -8 10 -21 0 -15 -12 -16 -11 -3 5 11 13 17 15 28 6 7 -7 11 -15 7
-18z m186 9 c0 -5 -4 -10 -10 -10 -5 0 -10 5 -10 10 0 6 5 10 10 10 6 0 10 -4
10 -10z m-40 -16 c0 -8 -19 -13 -24 -6 -3 5 1 9 9 9 8 0 15 -2 15 -3z m770
-38 c0 -2 -8 -10 -17 -17 -16 -13 -17 -12 -4 4 13 16 21 21 21 13z m-1153 -35
c0 -11 -5 -18 -9 -15 -4 3 -5 11 -1 19 7 21 12 19 10 -4z m3964 -14 c-13 -13
-26 -3 -16 12 3 6 11 8 17 5 6 -4 6 -10 -1 -17z m-3995 -6 c0 -16 -3 -17 -14
-9 -12 10 -7 19 13 28 1 0 1 -9 1 -19z m1211 -37 c-3 -3 -12 -4 -19 -1 -8 3
-5 6 6 6 11 1 17 -2 13 -5z m2793 2 c0 -2 -7 -9 -15 -16 -13 -11 -14 -10 -9 4
5 14 24 23 24 12z m-2786 -191 c-4 -8 -11 -12 -16 -9 -6 4 -5 10 3 15 19 12
19 11 13 -6z m2770 3 c-3 -4 -11 -5 -19 -1 -21 7 -19 12 4 10 11 0 18 -5 15
-9z m-3954 -73 c0 -2 -9 -3 -19 -2 -11 0 -18 5 -15 9 4 6 34 0 34 -7z m3924 3
c-3 -4 -9 -8 -15 -8 -5 0 -9 4 -9 8 0 5 7 9 15 9 8 0 12 -4 9 -9z m-3851 -91
c-2 -4 -9 -5 -14 -1 -5 3 -7 10 -4 15 4 5 1 9 -5 9 -6 0 -8 5 -5 11 5 6 12 4
20 -8 7 -10 11 -21 8 -26z m98 25 c-7 -2 -18 1 -23 6 -8 8 -4 9 13 5 13 -4 18
-8 10 -11z m3118 -45 c-9 -7 -15 -18 -13 -25 1 -7 0 -8 -3 -2 -2 5 -10 8 -16
4 -7 -3 -1 4 12 15 13 12 26 21 30 21 3 0 -1 -6 -10 -13z m-3084 -7 c-3 -5 -1
-10 4 -10 6 0 11 5 11 12 0 6 6 3 14 -7 18 -24 13 -33 -16 -31 -13 0 -23 8
-24 16 0 17 5 30 12 30 3 0 2 -4 -1 -10z m1032 -53 c0 -8 -6 -14 -14 -14 -9 0
-10 4 -2 14 6 7 12 13 14 13 1 0 2 -6 2 -13z m1989 -159 c-9 -5 -13 -14 -10
-20 4 -6 3 -8 -4 -5 -8 6 -9 25 -3 44 1 1 8 0 17 -4 15 -5 15 -7 0 -15z m-6
-48 c0 -5 -2 -10 -4 -10 -3 0 -8 5 -11 10 -3 6 -1 10 4 10 6 0 11 -4 11 -10z
m-5 -39 c-6 -5 -25 10 -25 20 0 5 6 4 14 -3 8 -7 12 -15 11 -17z m-15 -21 c0
-5 -4 -10 -10 -10 -5 0 -10 5 -10 10 0 6 5 10 10 10 6 0 10 -4 10 -10z m-2965
-69 c-2 -2 -11 3 -19 12 -8 8 -12 17 -9 21 3 3 12 -2 19 -12 7 -9 11 -19 9
-21z m20 21 c-3 -3 -11 0 -18 7 -9 10 -8 11 6 5 10 -3 15 -9 12 -12z m1125
-73 c0 -14 -17 -10 -23 5 -4 10 -1 13 9 9 7 -3 14 -9 14 -14z m-1590 -19 c-6
-11 -17 -17 -25 -14 -10 4 -13 0 -10 -15 4 -22 -10 -29 -18 -8 -5 14 42 69 55
61 4 -3 3 -14 -2 -24z m4019 14 c4 3 7 -3 6 -12 -2 -30 -18 -28 -20 3 -2 17
-1 24 2 17 3 -6 8 -10 12 -8z m-3896 -19 c-3 -9 -8 -14 -10 -11 -3 3 -2 9 2
15 9 16 15 13 8 -4z m47 11 c0 -3 -4 -8 -10 -11 -5 -3 -10 -1 -10 4 0 6 5 11
10 11 6 0 10 -2 10 -4z m1425 -15 c3 -5 0 -13 -6 -17 -7 -4 -9 -3 -5 4 3 5 0
13 -6 15 -9 4 -10 6 -1 6 6 1 14 -3 18 -8z m-1534 -24 c-10 -9 -11 -8 -5 6 3
10 9 15 12 12 3 -3 0 -11 -7 -18z m159 17 c0 -8 -19 -13 -24 -6 -3 5 1 9 9 9
8 0 15 -2 15 -3z m3283 -11 c-7 -2 -13 -9 -13 -14 0 -6 6 -7 13 -3 7 5 6 0 -3
-11 -14 -17 -13 -17 10 -10 24 7 24 7 5 -9 -19 -15 -45 -23 -32 -9 4 3 2 12
-4 20 -13 15 4 44 25 42 7 0 6 -2 -1 -6z m-3585 -78 c-3 -3 -9 2 -12 12 -6 14
-5 15 5 6 7 -7 10 -15 7 -18z m1717 15 c3 -5 1 -18 -5 -27 -11 -17 -11 -16 -5
1 3 11 0 23 -7 28 -9 5 -10 8 -1 8 6 0 15 -4 18 -10z m-1720 -39 c3 -5 2 -12
-3 -15 -5 -3 -9 1 -9 9 0 17 3 19 12 6z m4059 -46 c-7 -16 -24 -21 -24 -6 0 8
7 13 27 20 1 1 0 -6 -3 -14z m-2304 -21 c0 -8 -19 -13 -24 -6 -3 5 1 9 9 9 8
0 15 -2 15 -3z m-1760 -24 c0 -5 -5 -10 -11 -10 -5 0 -7 5 -4 10 3 6 8 10 11
10 2 0 4 -4 4 -10z m3690 1 c0 -6 -5 -13 -12 -17 -6 -4 -8 -3 -4 4 3 5 0 13
-6 15 -8 3 -6 6 5 6 9 1 17 -3 17 -8z m-1899 -48 c13 -16 12 -17 -3 -4 -17 13
-22 21 -14 21 2 0 10 -8 17 -17z m59 2 c0 -2 -9 -9 -20 -15 -12 -6 -20 -7 -20
-1 0 5 8 12 18 14 9 3 18 5 20 6 1 0 2 -1 2 -4z m5 -36 c-3 -12 -7 -24 -11
-28 -4 -3 -4 2 -1 12 4 10 1 17 -6 17 -8 0 -6 4 3 10 20 13 19 13 15 -11z
m1887 -34 c-3 -17 -2 -17 15 -4 16 13 17 13 4 -3 -15 -20 -35 -14 -27 7 3 8 1
16 -5 19 -5 2 -4 3 3 2 7 -2 11 -11 10 -21z m-1862 -5 c0 -5 -4 -10 -10 -10
-5 0 -10 5 -10 10 0 6 5 10 10 10 6 0 10 -4 10 -10z m1915 -44 c0 -15 -4 -21
-9 -16 -5 5 -6 16 -3 24 9 22 12 20 12 -8z m-3620 -56 c3 -5 1 -10 -4 -10 -6
0 -11 5 -11 10 0 6 2 10 4 10 3 0 8 -4 11 -10z m-7 -27 c15 -2 22 3 23 15 0
14 2 14 8 -3 11 -25 -8 -54 -20 -32 -5 8 -19 13 -32 12 -17 -2 -23 2 -23 17 0
15 3 16 11 6 5 -7 20 -14 33 -15z m405 14 c3 -8 -1 -14 -8 -14 -7 0 -11 6 -8
14 3 7 6 13 8 13 2 0 5 -6 8 -13z m34 7 c-3 -3 -12 -4 -19 -1 -8 3 -5 6 6 6
11 1 17 -2 13 -5z m-247 -12 c0 -5 -7 -9 -15 -9 -8 0 -15 4 -15 9 0 4 7 8 15
8 8 0 15 -4 15 -8z m355 -12 c3 -5 1 -10 -4 -10 -6 0 -11 5 -11 10 0 6 2 10 4
10 3 0 8 -4 11 -10z m2410 -1 c10 -14 1 -21 -19 -13 -9 3 -13 10 -10 15 7 12
21 11 29 -2z m735 -3 c0 -3 -4 -8 -10 -11 -5 -3 -10 -1 -10 4 0 6 5 11 10 11
6 0 10 -2 10 -4z m40 -4 c0 -5 -10 -19 -22 -32 l-22 -23 23 6 c18 4 20 3 10
-9 -8 -10 -15 -11 -24 -4 -8 7 -14 7 -17 1 -1 -5 -10 1 -19 13 -16 20 -16 22
1 22 12 0 16 -5 12 -16 -5 -13 -3 -13 11 -1 9 7 14 17 11 22 -3 5 0 8 8 7 7
-2 12 3 11 10 -2 6 2 12 7 12 6 0 10 -4 10 -8z m-1922 -27 c-3 -3 -9 2 -12 12
-6 14 -5 15 5 6 7 -7 10 -15 7 -18z m-1225 -45 c3 -11 1 -18 -4 -14 -5 3 -9
12 -9 20 0 20 7 17 13 -6z m1327 -4 c0 -3 -4 -8 -10 -11 -5 -3 -10 -1 -10 4 0
6 5 11 10 11 6 0 10 -2 10 -4z m920 -26 c0 -5 -4 -10 -10 -10 -5 0 -10 5 -10
10 0 6 5 10 10 10 6 0 10 -4 10 -10z m-2237 -25 c-3 -9 -8 -14 -10 -11 -3 3
-2 9 2 15 9 16 15 13 8 -4z m2268 -2 c13 -16 12 -17 -3 -4 -10 7 -18 15 -18
17 0 8 8 3 21 -13z m-831 -14 c0 -5 4 -8 9 -5 4 3 16 -3 26 -14 10 -11 15 -20
11 -20 -4 0 -2 -10 4 -22 7 -14 1 -10 -15 10 -25 30 -28 31 -40 16 -9 -13 -14
-14 -20 -4 -5 9 -4 11 4 6 8 -5 10 0 7 18 -3 14 0 26 5 26 5 0 9 -5 9 -11z
m644 -20 c-3 -6 4 -8 18 -6 12 2 17 2 11 0 -7 -3 -13 -9 -13 -14 0 -6 -5 -7
-12 -3 -8 5 -9 2 -5 -10 5 -14 3 -15 -13 -6 -13 7 -21 7 -25 0 -4 -6 -11 -8
-16 -5 -8 6 -13 -8 -10 -27 0 -4 -7 -4 -16 -1 -11 4 -13 8 -5 11 7 2 10 8 6
13 -4 8 8 13 27 11 4 -1 15 8 24 18 10 11 15 20 11 20 -4 0 -4 5 -1 10 4 6 11
8 16 4 5 -3 7 -10 3 -15z m394 -20 c-3 -8 -7 -3 -11 10 -4 17 -3 21 5 13 5 -5
8 -16 6 -23z m27 11 c-3 -5 0 -10 7 -11 10 0 10 -2 0 -6 -6 -2 -9 -10 -6 -15
4 -6 2 -8 -4 -5 -5 4 -9 15 -7 25 5 23 4 22 11 22 3 0 2 -4 -1 -10z m-1041
-28 c3 -5 -1 -9 -9 -9 -8 0 -15 4 -15 9 0 4 4 8 9 8 6 0 12 -4 15 -8z m661 -2
c-3 -5 -12 -10 -18 -10 -7 0 -6 4 3 10 19 12 23 12 15 0z m-2120 -10 c3 -6 -1
-7 -9 -4 -18 7 -21 14 -7 14 6 0 13 -4 16 -10z m1516 -13 c-6 -8 -7 -18 -3
-22 4 -5 1 -5 -6 -1 -10 6 -10 11 -1 22 6 8 14 14 16 14 3 0 0 -6 -6 -13z m99
-2 c0 -8 -4 -15 -10 -15 -5 0 -7 7 -4 15 4 8 8 15 10 15 2 0 4 -7 4 -15z m95
5 c3 -5 1 -10 -4 -10 -6 0 -11 5 -11 10 0 6 2 10 4 10 3 0 8 -4 11 -10z m355
6 c0 -2 -7 -9 -15 -16 -13 -11 -14 -10 -9 4 5 14 24 23 24 12z m-266 -32 c9
-24 7 -27 -9 -10 -17 17 -19 26 -6 26 5 0 12 -7 15 -16z m-1794 -14 c0 -5 -4
-10 -10 -10 -5 0 -10 5 -10 10 0 6 5 10 10 10 6 0 10 -4 10 -10z m1764 2 c2
-4 -4 -8 -14 -8 -10 0 -16 4 -14 8 3 4 9 8 14 8 5 0 11 -4 14 -8z m-1881 -199
c3 -5 -5 -8 -18 -8 -13 0 -21 3 -18 8 2 4 10 7 18 7 8 0 16 -3 18 -7z m2744
-8 c0 -8 -4 -12 -9 -9 -5 3 -6 10 -3 15 9 13 12 11 12 -6z m-2813 -13 c3 -5
-1 -9 -9 -9 -8 0 -12 4 -9 9 3 4 7 8 9 8 2 0 6 -4 9 -8z m2860 -17 c-5 -11 -9
-12 -19 -2 -9 8 -10 14 -2 19 16 9 27 0 21 -17z m-3053 -32 c13 -15 12 -15 -8
-4 -24 12 -29 21 -14 21 5 0 15 -7 22 -17z m3059 -17 c0 -2 -7 -7 -16 -10 -8
-3 -12 -2 -9 4 6 10 25 14 25 6z m-17 -71 c-3 -9 -8 -14 -10 -11 -3 3 -2 9 2
15 9 16 15 13 8 -4z m-50 -70 c4 -8 1 -17 -6 -21 -7 -4 -9 -4 -5 1 4 4 3 14
-3 22 -7 8 -8 13 -1 13 5 0 12 -7 15 -15z m57 -5 c0 -5 -4 -10 -10 -10 -5 0
-10 5 -10 10 0 6 5 10 10 10 6 0 10 -4 10 -10z m-98 -54 c5 4 5 -3 -2 -16 -6
-12 -14 -19 -17 -16 -4 3 -13 0 -21 -7 -13 -9 -14 -9 -8 1 4 6 2 12 -3 12 -6
0 -11 4 -11 9 0 6 9 8 20 6 13 -3 20 2 21 13 0 11 2 12 6 4 2 -6 9 -9 15 -6z
m-197 -76 c-3 -5 -12 -10 -18 -10 -7 0 -6 4 3 10 19 12 23 12 15 0z"/>
<path d="M1240 1820 c-12 -7 -10 -9 7 -7 12 0 19 5 17 9 -6 10 -6 10 -24 -2z"/>
<path d="M805 1389 c-4 -6 -5 -12 -2 -15 2 -3 7 2 10 11 7 17 1 20 -8 4z"/>
<path d="M2940 746 c0 -2 8 -10 18 -17 15 -13 16 -12 3 4 -13 16 -21 21 -21
13z"/>
<path d="M3990 5106 c0 -2 7 -7 16 -10 8 -3 12 -2 9 4 -6 10 -25 14 -25 6z"/>
<path d="M3896 5072 c-3 -5 4 -13 15 -20 15 -10 19 -10 19 2 0 15 -27 29 -34
18z"/>
<path d="M4052 5006 c-9 -19 -8 -24 3 -22 8 1 18 6 22 11 4 4 2 5 -6 0 -10 -6
-12 -2 -6 14 9 28 1 27 -13 -3z"/>
<path d="M4095 5000 c-3 -5 -1 -10 4 -10 6 0 11 5 11 10 0 6 -2 10 -4 10 -3 0
-8 -4 -11 -10z"/>
<path d="M4190 4894 c-11 -12 -11 -18 2 -30 14 -14 16 -13 21 6 4 17 3 19 -9
9 -17 -14 -19 2 -2 19 7 7 9 12 6 12 -3 0 -11 -7 -18 -16z"/>
<path d="M4276 4847 c3 -10 9 -15 12 -12 3 3 0 11 -7 18 -10 9 -11 8 -5 -6z"/>
<path d="M4310 4779 c0 -5 -6 -7 -12 -4 -7 4 -3 -2 9 -13 12 -11 20 -22 17
-24 -2 -3 13 -22 35 -43 22 -22 38 -42 36 -46 -3 -3 5 -15 17 -25 12 -11 18
-13 13 -5 -6 11 -4 13 8 8 11 -4 14 -2 11 8 -3 8 -9 13 -13 12 -10 -3 -62 51
-53 56 4 2 2 3 -5 1 -18 -4 -24 8 -11 25 7 9 8 13 4 9 -11 -9 -48 31 -40 43 3
5 0 9 -5 9 -6 0 -11 -5 -11 -11z"/>
<path d="M3401 4667 c9 -7 14 -18 12 -24 -5 -15 13 -18 22 -3 3 5 14 2 25 -7
15 -13 17 -20 8 -32 -10 -13 -10 -14 2 -4 15 14 24 46 10 38 -4 -3 -13 2 -20
10 -7 8 -16 13 -20 10 -4 -3 -13 2 -20 10 -7 8 -18 15 -24 15 -6 0 -4 -6 5
-13z"/>
<path d="M3331 4657 c-1 -11 -6 -15 -13 -11 -7 5 -8 3 -3 -5 10 -16 29 2 22
21 -4 8 -6 7 -6 -5z"/>
<path d="M3266 4643 c-6 -14 -5 -15 5 -6 7 7 10 15 7 18 -3 3 -9 -2 -12 -12z"/>
<path d="M240 4639 c0 -5 5 -7 10 -4 6 3 10 8 10 11 0 2 -4 4 -10 4 -5 0 -10
-5 -10 -11z"/>
<path d="M680 4639 c0 -5 5 -7 10 -4 6 3 10 8 10 11 0 2 -4 4 -10 4 -5 0 -10
-5 -10 -11z"/>
<path d="M3029 4638 c-6 -21 -5 -37 2 -32 5 3 7 10 4 15 -4 5 -1 9 4 9 6 0 11
-4 11 -10 0 -5 5 -10 11 -10 8 0 8 5 -1 15 -11 13 -28 20 -31 13z"/>
<path d="M3096 4622 c-3 -5 1 -9 9 -9 8 0 12 4 9 9 -3 4 -7 8 -9 8 -2 0 -6 -4
-9 -8z"/>
<path d="M2994 4602 c-9 -14 -8 -18 5 -18 9 -1 25 -4 36 -8 16 -5 15 -4 -2 5
-12 6 -23 18 -25 26 -2 10 -6 9 -14 -5z"/>
<path d="M4466 4567 c1 -12 3 -25 3 -29 1 -5 5 -8 9 -8 12 0 9 49 -3 54 -7 2
-11 -5 -9 -17z"/>
<path d="M3515 4570 c-3 -6 1 -7 9 -4 18 7 21 14 7 14 -6 0 -13 -4 -16 -10z"/>
<path d="M3560 4570 c-8 -5 -10 -10 -5 -10 6 0 3 -5 -5 -10 -9 -6 -10 -10 -3
-10 7 0 17 9 23 20 12 23 11 24 -10 10z"/>
<path d="M2910 4561 c0 -7 -6 -11 -15 -8 -8 4 -17 2 -20 -4 -4 -5 -3 -9 2 -8
4 1 16 -1 26 -6 24 -10 31 -1 18 22 -7 11 -11 13 -11 4z"/>
<path d="M3476 4558 c3 -5 10 -6 15 -3 13 9 11 12 -6 12 -8 0 -12 -4 -9 -9z"/>
<path d="M2975 4540 c-3 -5 -1 -10 4 -10 6 0 11 5 11 10 0 6 -2 10 -4 10 -3 0
-8 -4 -11 -10z"/>
<path d="M2830 4466 c0 -2 7 -7 16 -10 8 -3 12 -2 9 4 -6 10 -25 14 -25 6z"/>
<path d="M2694 4408 c-4 -7 -4 -10 1 -6 4 4 16 3 26 -3 11 -5 19 -7 19 -5 0 3
-9 10 -19 16 -15 7 -22 7 -27 -2z"/>
<path d="M4590 4411 c0 -6 4 -13 10 -16 6 -3 7 1 4 9 -7 18 -14 21 -14 7z"/>
<path d="M3845 4381 c-3 -6 -1 -11 5 -11 6 0 18 -7 26 -15 9 -8 11 -15 5 -15
-6 0 -11 -7 -11 -15 0 -8 5 -15 12 -15 6 0 8 3 5 7 -4 3 -2 12 5 20 6 7 9 15
7 16 -2 1 -14 10 -26 20 -14 12 -23 15 -28 8z"/>
<path d="M784 4353 c9 -16 -4 -44 -17 -36 -6 4 -7 1 -1 -8 12 -20 14 -39 3
-39 -6 0 -7 -5 -4 -11 5 -6 12 -4 20 8 8 10 10 22 5 27 -5 5 -5 17 1 29 8 14
7 22 -2 31 -9 8 -10 8 -5 -1z"/>
<path d="M2631 4337 c-6 -8 -8 -17 -4 -20 12 -13 22 -7 20 13 -2 24 -1 24 -16
7z"/>
<path d="M4630 4315 c0 -8 4 -15 10 -15 5 0 7 7 4 15 -4 8 -8 15 -10 15 -2 0
-4 -7 -4 -15z"/>
<path d="M2575 4250 c-3 -5 -1 -10 4 -10 6 0 11 5 11 10 0 6 -2 10 -4 10 -3 0
-8 -4 -11 -10z"/>
<path d="M723 4232 c11 -10 20 -11 32 -4 12 6 14 11 6 16 -6 4 -11 2 -11 -3 0
-6 -5 -11 -11 -11 -5 0 -8 4 -5 8 3 5 -2 9 -10 9 -13 0 -13 -2 -1 -15z"/>
<path d="M421 4218 c7 -15 17 -25 22 -21 6 3 22 7 36 8 13 0 26 6 27 13 2 8 1
9 -3 1 -4 -8 -7 -8 -13 1 -6 9 -12 9 -28 -1 -19 -12 -24 -11 -37 6 -14 19 -15
18 -4 -7z"/>
<path d="M696 4213 c-6 -14 -5 -15 5 -6 7 7 10 15 7 18 -3 3 -9 -2 -12 -12z"/>
<path d="M2575 4220 c3 -5 8 -10 11 -10 2 0 4 5 4 10 0 6 -5 10 -11 10 -5 0
-7 -4 -4 -10z"/>
<path d="M400 4206 c14 -18 13 -19 -2 -13 -13 4 -15 2 -11 -10 4 -11 2 -14 -5
-9 -8 5 -10 1 -5 -10 4 -11 2 -15 -4 -11 -6 4 -10 -1 -9 -11 0 -9 -4 -16 -11
-15 -6 1 -13 -3 -16 -10 -3 -7 4 -12 18 -12 12 0 21 5 18 11 -2 5 7 27 21 46
23 34 23 38 8 50 -16 12 -16 11 -2 -6z"/>
<path d="M4690 4200 c0 -5 5 -10 11 -10 5 0 7 5 4 10 -3 6 -8 10 -11 10 -2 0
-4 -4 -4 -10z"/>
<path d="M4716 4134 c-20 -19 -20 -25 -2 -18 8 3 17 12 20 20 7 18 1 18 -18
-2z"/>
<path d="M4026 4103 c-6 -14 -5 -15 5 -6 7 7 10 15 7 18 -3 3 -9 -2 -12 -12z"/>
<path d="M323 4064 c-8 -17 -8 -26 -1 -31 7 -3 8 -1 4 5 -3 6 0 14 8 19 8 5
12 14 8 20 -5 7 -11 3 -19 -13z"/>
<path d="M4736 4039 c6 -11 31 -12 37 -1 3 4 -6 8 -19 8 -13 1 -21 -2 -18 -7z"/>
<path d="M2426 3981 c-4 -5 3 -7 14 -4 23 6 26 13 6 13 -8 0 -17 -4 -20 -9z"/>
<path d="M2436 3953 c-6 -14 -5 -15 5 -6 7 7 10 15 7 18 -3 3 -9 -2 -12 -12z"/>
<path d="M3335 3929 c-4 -6 -5 -12 -2 -15 2 -3 7 2 10 11 7 17 1 20 -8 4z"/>
<path d="M3173 3892 c-6 -14 15 -34 28 -26 4 2 10 1 13 -4 11 -19 -35 -9 -49
11 -11 15 -15 17 -15 6 0 -8 5 -20 12 -27 7 -7 9 -12 5 -12 -3 0 -15 10 -26
22 -18 18 -22 19 -38 7 -15 -12 -16 -12 -10 4 4 11 3 16 -4 12 -6 -4 -8 -13
-5 -21 3 -8 1 -14 -4 -14 -6 0 -10 5 -10 10 0 6 -5 10 -11 10 -8 0 -9 -4 0
-13 11 -14 5 -27 -11 -27 -5 0 -6 5 -3 10 3 6 1 10 -4 10 -15 0 -14 -13 1 -28
17 -17 -10 -36 -28 -21 -8 7 -14 6 -19 -1 -4 -6 -3 -9 2 -8 4 2 9 -1 10 -7 1
-5 -8 -9 -20 -8 -12 1 -16 -1 -9 -3 6 -3 12 -10 12 -15 0 -6 -4 -8 -9 -5 -5 3
-11 -1 -15 -9 -8 -22 -1 -19 38 16 29 25 38 28 53 19 17 -11 17 -11 -1 -6 -20
7 -46 -9 -46 -27 0 -7 4 -7 12 1 7 7 16 12 22 12 5 0 1 -6 -9 -14 -11 -8 -26
-11 -34 -8 -9 3 -12 1 -7 -6 3 -6 1 -14 -5 -18 -8 -5 -9 -3 -4 6 5 8 3 11 -6
8 -8 -3 -13 -11 -11 -17 3 -16 -3 -14 -19 6 -12 15 -12 16 1 8 13 -8 13 -7 1
8 -14 18 -26 23 -16 8 3 -5 1 -12 -4 -16 -6 -3 -8 -12 -5 -20 4 -8 11 -12 18
-8 7 4 7 1 -1 -9 -7 -8 -9 -19 -5 -23 4 -5 -6 -1 -22 9 -16 10 -25 12 -21 5 5
-7 9 -25 10 -41 3 -26 1 -27 -10 -11 -7 10 -17 14 -21 10 -5 -4 -2 -13 6 -18
11 -8 6 -9 -20 -5 l-35 6 30 -20 c32 -21 28 -27 -6 -9 -18 9 -19 8 -7 -10 6
-11 15 -18 19 -15 4 2 -2 -14 -14 -35 -12 -22 -23 -38 -25 -36 -2 2 1 13 8 24
9 17 8 21 -5 21 -8 0 -14 -3 -14 -7 3 -21 -2 -34 -11 -28 -6 4 -7 11 -4 17 4
7 2 8 -4 4 -16 -10 -15 -12 11 -36 16 -16 17 -19 5 -15 -13 5 -18 2 -18 -10 0
-10 4 -13 13 -9 9 6 9 5 0 -8 -7 -8 -9 -19 -5 -23 4 -5 2 -5 -4 -2 -6 4 -22
-2 -34 -13 -19 -16 -20 -20 -7 -20 10 0 17 -4 17 -10 0 -6 -9 -6 -26 0 -34 13
-43 12 -19 -3 11 -7 21 -19 23 -27 3 -12 1 -13 -9 -2 -7 6 -17 12 -22 12 -5 0
-1 -7 8 -16 13 -13 14 -19 4 -25 -7 -4 -17 -5 -23 -2 -5 3 -6 1 -2 -6 5 -7 16
-9 28 -5 14 4 18 2 14 -5 -4 -6 -16 -11 -27 -11 -10 0 -19 -5 -19 -11 0 -5 4
-8 8 -5 4 2 14 1 22 -5 13 -7 12 -9 -2 -9 -20 0 -23 -11 -7 -27 7 -7 8 -17 2
-28 -9 -16 -10 -16 -16 -1 -4 10 -3 15 3 11 6 -3 10 -1 10 5 0 7 -6 10 -12 7
-7 -2 -11 -12 -10 -22 3 -14 0 -17 -10 -9 -8 5 -7 2 2 -6 25 -23 21 -47 -5
-42 -13 2 -26 -2 -30 -8 -5 -8 -2 -10 11 -6 17 5 19 0 20 -39 0 -41 -2 -45
-20 -39 -21 6 -21 6 -1 -11 20 -16 20 -17 0 -10 -11 3 -16 3 -12 -1 4 -4 0
-19 -10 -33 -14 -22 -14 -24 -1 -13 11 9 18 10 23 2 3 -6 10 -8 15 -5 5 3 3
-7 -5 -21 -10 -20 -11 -33 -3 -47 7 -14 7 -17 -1 -13 -6 4 -11 2 -11 -5 0 -8
-5 -7 -17 2 -17 13 -17 12 -4 -4 12 -15 12 -20 2 -27 -10 -6 -8 -10 8 -15 11
-3 21 -11 21 -16 0 -6 -7 -6 -19 1 -14 7 -22 7 -27 -2 -4 -7 -3 -8 5 -4 6 4
14 0 17 -8 3 -9 11 -13 16 -10 6 4 5 -2 -1 -14 -9 -17 -8 -23 5 -30 15 -8 15
-10 0 -15 -9 -4 -16 -14 -16 -22 0 -9 -5 -13 -11 -9 -8 4 -8 0 0 -15 7 -11 15
-21 19 -21 4 0 8 -9 9 -20 2 -17 -3 -19 -25 -15 -24 5 -25 4 -5 -4 13 -6 20
-17 19 -28 -2 -10 2 -22 8 -26 6 -5 2 -7 -12 -4 -19 5 -21 3 -11 -9 6 -7 16
-11 22 -7 6 3 7 1 3 -6 -4 -6 -11 -9 -16 -6 -5 3 -12 0 -16 -6 -4 -8 -3 -9 4
-5 8 5 12 0 12 -13 0 -11 8 -25 18 -31 14 -8 12 -9 -9 -4 -15 3 -30 1 -33 -5
-5 -7 -1 -8 10 -4 12 4 15 3 10 -5 -4 -7 -2 -10 7 -6 8 3 14 -1 14 -10 0 -8
-4 -13 -8 -11 -4 3 -10 -2 -13 -10 -4 -10 3 -19 19 -25 14 -5 25 -11 25 -13 0
-7 -35 -1 -50 8 -13 8 -13 6 -1 -8 7 -9 17 -14 22 -11 5 3 6 -2 3 -10 -3 -9
-11 -13 -16 -10 -6 4 -3 -4 5 -17 9 -14 14 -41 13 -63 -2 -28 -1 -34 6 -22 7
13 13 14 23 6 15 -13 9 -41 -9 -39 -22 3 -36 -1 -36 -10 0 -5 11 -8 25 -6 14
1 33 -4 42 -12 17 -13 16 -13 -2 -4 -17 8 -22 5 -32 -16 -12 -25 -12 -25 8 -7
15 14 20 15 17 4 -2 -8 3 -14 10 -12 6 1 12 -2 12 -8 0 -5 -6 -10 -12 -10 -9
0 -8 -4 2 -10 13 -9 13 -10 0 -10 -13 0 -13 -2 0 -11 13 -9 12 -10 -2 -5 -20
6 -34 -9 -18 -19 6 -4 7 -11 4 -17 -4 -7 -2 -8 5 -4 6 4 9 11 7 15 -3 4 1 8 9
8 8 0 11 -5 7 -11 -4 -6 -7 -15 -7 -21 -1 -5 -7 -9 -15 -7 -10 2 -11 0 -2 -11
9 -10 9 -17 -1 -27 -10 -12 -9 -12 5 -1 10 7 16 17 13 20 -2 4 2 8 9 8 7 0 13
-6 13 -13 0 -7 -4 -11 -9 -8 -4 3 -8 2 -9 -3 0 -4 -2 -18 -3 -31 -2 -13 1 -25
5 -28 4 -2 6 -13 4 -24 -2 -11 1 -19 8 -17 7 1 11 -7 9 -18 -2 -15 -1 -17 6
-6 6 8 15 10 23 6 9 -6 11 -3 6 9 -4 10 -3 15 3 11 16 -10 12 -38 -4 -32 -8 3
-17 0 -20 -8 -3 -10 3 -12 22 -10 15 2 21 2 15 -1 -7 -3 -13 -12 -13 -20 0 -9
-5 -12 -11 -8 -6 3 -3 -5 6 -20 9 -14 22 -23 27 -20 6 4 8 -2 3 -15 -4 -13 -2
-21 5 -21 6 0 9 4 6 8 -2 4 4 8 14 8 10 0 17 -4 14 -7 -2 -4 0 -10 5 -13 5 -4
8 -14 6 -24 -1 -9 3 -24 9 -32 10 -13 9 -13 -6 -1 -10 7 -15 18 -11 24 4 6 1
7 -7 2 -9 -5 -11 -4 -6 3 4 7 5 12 2 12 -3 0 -10 -10 -17 -21 -8 -16 -8 -20 1
-14 6 4 21 -3 33 -15 18 -20 21 -21 26 -7 5 13 8 11 18 -8 6 -14 7 -23 2 -19
-5 3 -9 1 -9 -5 0 -5 8 -15 18 -21 14 -9 13 -10 -8 -5 l-25 6 27 -16 c16 -9
25 -22 23 -32 -2 -10 -4 -20 -4 -23 -1 -3 -6 2 -12 10 -7 10 -9 11 -7 2 2 -8
8 -14 13 -14 6 0 15 -4 22 -9 7 -7 14 -6 18 1 6 9 -1 14 -17 11 -4 0 -5 6 -2
14 6 15 25 21 23 8 -3 -21 3 -24 18 -12 11 10 14 10 9 2 -4 -7 -3 -13 2 -13 5
0 15 -11 22 -25 7 -13 17 -22 22 -19 7 5 9 -1 8 -21 -1 -7 27 -35 35 -35 3 0
1 9 -5 19 -7 14 -7 22 0 26 6 4 9 3 8 -2 -3 -11 25 -73 34 -74 5 -1 13 -2 18
-3 6 0 15 -8 21 -16 9 -13 10 -12 5 2 -6 19 9 25 19 8 4 -6 16 -8 27 -4 15 5
19 3 13 -7 -5 -8 6 -1 23 15 17 16 28 34 25 39 -3 6 5 2 19 -9 25 -18 28 -34
7 -34 -6 0 -8 4 -5 8 3 5 -1 9 -9 9 -22 0 -26 -24 -7 -39 15 -11 15 -11 5 3
-11 13 -9 16 17 16 27 0 35 -8 31 -30 -1 -5 3 -6 9 -2 7 4 7 12 0 26 -6 11 -8
23 -5 28 3 5 -1 12 -7 14 -8 4 -9 6 -2 6 6 1 18 -7 25 -16 10 -11 10 -14 2 -9
-19 11 -16 3 5 -15 18 -15 19 -14 16 20 -2 31 1 37 18 38 19 2 19 1 3 -11 -15
-10 -16 -16 -6 -32 9 -15 11 -16 9 -2 -2 9 2 17 7 17 6 1 9 -10 9 -24 -1 -13
2 -22 7 -19 4 2 5 12 2 21 -4 10 -2 14 4 10 6 -4 22 2 34 14 13 11 19 18 13
15 -7 -3 -14 1 -17 9 -5 11 -1 12 17 5 20 -7 23 -6 20 16 -1 13 1 24 5 24 15
0 5 49 -14 71 -11 12 -14 19 -7 15 6 -4 12 -2 12 4 0 6 5 8 10 5 6 -3 10 -1
10 4 0 6 -5 11 -11 11 -8 0 -7 6 2 18 13 15 12 16 -3 3 -10 -7 -16 -17 -13
-21 7 -11 -22 -6 -32 5 -4 4 -3 5 3 2 11 -6 23 11 29 39 4 15 -18 12 -41 -6
-17 -14 -18 -14 -6 2 8 9 11 22 8 27 -4 5 -2 12 4 16 5 3 10 1 10 -6 0 -7 3
-10 6 -6 14 14 -7 27 -27 16 -25 -13 -38 -4 -19 14 10 10 11 9 5 -2 -5 -10 -4
-12 4 -7 16 10 3 29 -16 22 -8 -4 -11 -2 -7 5 4 8 -1 9 -17 4 -23 -7 -24 -7
-4 9 18 14 19 15 2 16 -10 0 -16 4 -13 9 3 5 16 7 29 5 20 -4 20 -4 2 5 -11 4
-23 7 -27 4 -5 -2 -8 3 -8 11 0 10 6 13 18 10 15 -5 15 -4 -1 6 -15 10 -16 14
-5 28 7 9 8 13 2 9 -7 -4 -15 0 -18 9 -4 10 -2 13 6 8 7 -4 8 -3 4 5 -4 6 -2
19 5 27 6 8 9 17 5 21 -3 3 -6 1 -6 -6 0 -9 -3 -9 -13 1 -12 10 -12 15 -1 26
10 9 11 19 4 31 -6 12 -5 22 2 29 7 7 8 12 3 12 -6 0 -3 5 5 10 11 8 7 9 -15
5 l-30 -6 28 16 c15 9 27 18 27 21 0 3 -5 2 -11 -1 -6 -4 -10 -1 -8 6 3 29 -1
40 -13 33 -7 -4 -4 2 6 14 11 12 15 22 10 22 -5 0 -2 5 6 11 13 9 13 10 0 6
-8 -2 -14 -10 -12 -16 1 -7 -2 -9 -8 -6 -6 4 -9 13 -6 21 3 7 -3 18 -12 23 -9
6 -12 11 -5 11 6 0 15 -4 18 -10 3 -5 10 -10 16 -10 5 0 4 9 -3 21 -11 17 -10
22 5 33 17 14 23 27 10 25 -27 -4 -34 2 -19 17 9 8 13 20 10 26 -4 6 -7 20 -8
32 -1 12 -8 21 -17 20 -9 -1 -16 5 -16 12 0 9 5 10 19 3 11 -6 18 -6 18 0 0 5
-7 12 -16 15 -8 3 -13 10 -10 15 4 5 1 12 -4 14 -6 3 -5 4 2 3 7 -2 12 -9 11
-15 -2 -6 2 -11 8 -11 6 0 9 6 6 14 -3 7 0 19 6 25 9 9 8 11 -4 6 -20 -8 -35
10 -18 21 8 5 9 3 4 -7 -6 -11 -5 -12 5 -2 12 11 11 15 -3 25 -10 7 -19 27
-22 43 -2 17 -2 24 1 17 3 -6 11 -9 17 -5 7 4 7 0 -1 -10 -12 -14 -11 -16 6
-14 13 1 18 6 14 16 -4 10 -1 12 9 6 8 -5 11 -5 6 1 -5 5 -14 9 -20 9 -5 0
-12 6 -15 14 -3 10 0 12 12 8 25 -10 19 1 -11 18 -28 15 -28 15 -3 11 14 -1
19 -1 12 1 -7 3 -10 9 -7 14 3 5 -1 6 -9 3 -9 -3 -16 -1 -16 5 0 6 9 11 20 11
11 0 20 5 20 11 0 5 -4 8 -9 5 -5 -3 -12 1 -15 10 -5 12 -2 15 9 10 9 -3 14
-2 10 3 -3 5 1 12 7 15 7 2 4 4 -7 3 -11 -2 -27 -7 -35 -12 -13 -8 -13 -7 -1
8 11 14 11 20 0 33 -17 20 -20 44 -7 44 6 0 8 -6 5 -14 -6 -14 22 -46 39 -46
5 0 3 4 -5 9 -8 5 -15 18 -16 28 0 10 -4 24 -9 31 -4 6 -4 12 1 13 4 0 -1 5
-12 10 -16 7 -14 8 10 4 27 -5 28 -4 13 8 -10 8 -15 17 -11 20 3 4 11 2 18 -3
8 -7 12 -5 12 5 0 8 -4 12 -9 9 -4 -3 -8 1 -8 8 -1 7 -9 3 -20 -11 -26 -30
-26 -14 0 19 25 32 25 52 0 22 -17 -21 -19 -21 -17 -3 0 11 5 17 11 14 5 -4 7
3 4 15 -5 19 -3 20 12 12 10 -6 21 -10 24 -10 8 0 -41 47 -56 54 -7 3 -3 4 9
2 13 -2 26 0 29 5 5 8 -9 13 -28 10 -5 0 -8 4 -8 10 0 6 6 9 14 6 10 -4 13 3
11 24 -1 16 2 32 8 36 6 3 7 1 3 -5 -4 -7 -1 -12 8 -12 9 0 16 -4 16 -10 0 -5
-6 -7 -13 -4 -8 3 -14 -2 -14 -11 0 -9 6 -14 13 -11 20 7 25 -22 6 -33 -11 -7
-12 -11 -4 -11 7 0 10 -5 6 -11 -4 -8 -9 -7 -15 2 -6 10 -9 10 -9 2 0 -18 21
-27 30 -12 5 7 6 17 4 21 -3 4 -2 9 3 9 34 6 52 5 48 -1 -3 -4 2 -11 11 -14 9
-4 12 -11 7 -18 -13 -23 -11 -58 5 -58 11 0 12 3 4 13 -8 9 -8 17 0 27 8 13 9
12 5 -2 -3 -9 -1 -19 6 -21 9 -3 9 -8 0 -18 -22 -22 -14 -33 10 -13 12 10 16
12 10 4 -18 -20 -16 -35 2 -20 9 7 15 8 15 2 0 -11 -28 -24 -39 -17 -4 2 -8
-2 -8 -10 0 -9 6 -11 21 -5 12 4 30 3 41 -2 18 -8 18 -8 -2 -4 -13 2 -23 1
-23 -4 0 -12 30 -21 42 -13 7 4 8 1 3 -6 -4 -7 -15 -11 -24 -8 -13 3 -17 -2
-16 -22 1 -14 5 -27 11 -28 5 0 8 2 7 6 -1 4 8 8 20 8 12 1 17 -1 12 -5 -6 -4
-11 -20 -11 -37 l-1 -30 10 28 c6 15 15 27 19 27 5 0 3 -10 -3 -22 -9 -16 -9
-23 0 -26 6 -2 11 -8 11 -13 0 -6 -4 -8 -9 -5 -5 3 -11 -1 -14 -9 -4 -9 -1
-12 9 -8 7 3 14 0 14 -6 0 -6 5 -11 11 -11 8 0 8 4 1 13 -7 9 -8 17 -1 27 9
13 10 13 6 0 -2 -8 4 -25 14 -38 10 -13 15 -30 12 -38 -3 -9 1 -14 13 -14 16
0 16 -2 4 -9 -8 -6 -17 -8 -20 -6 -4 2 -7 -2 -7 -10 0 -11 3 -12 14 -3 10 8
17 8 24 1 8 -8 7 -13 -2 -18 -8 -6 -10 -4 -4 5 5 9 4 11 -3 6 -19 -12 -14 -26
9 -26 19 0 20 -2 8 -16 -15 -18 -22 -47 -9 -39 5 3 11 1 15 -5 4 -6 11 -7 17
-4 8 5 9 1 5 -10 -4 -10 -3 -15 3 -11 6 3 10 2 10 -4 0 -5 -4 -11 -9 -13 -5
-1 -3 -9 5 -16 11 -10 13 -8 10 18 -2 17 1 33 7 37 6 3 7 1 3 -5 -4 -7 -2 -12
5 -12 9 0 10 -3 2 -11 -12 -12 -5 -61 8 -53 16 10 9 -9 -8 -23 -16 -13 -16
-13 5 -3 22 11 23 10 17 -9 -5 -16 -2 -21 12 -21 15 0 16 2 3 10 -11 7 -11 10
-2 10 7 0 11 4 7 9 -3 5 -1 12 4 15 5 4 8 -2 6 -11 -1 -10 3 -24 9 -32 9 -12
8 -13 -3 -6 -11 6 -13 4 -6 -11 4 -10 9 -28 10 -39 2 -11 4 -21 4 -23 1 -1 11
2 22 9 13 6 19 7 15 1 -3 -6 -1 -12 6 -14 7 -3 8 -9 3 -18 -5 -8 -10 -22 -10
-32 -1 -13 2 -15 16 -7 23 12 30 11 27 -2 -2 -6 4 -14 12 -16 12 -4 12 -3 1 5
-11 8 -10 12 5 21 11 6 14 11 9 11 -15 0 -17 47 -3 56 7 5 9 2 6 -8 -4 -8 -2
-21 4 -29 8 -11 9 -11 5 2 -3 9 0 22 6 28 8 8 8 11 -2 11 -7 0 -10 4 -7 9 3 5
-1 14 -9 21 -19 16 -19 26 1 34 14 5 15 4 5 -8 -9 -10 -9 -15 1 -19 9 -3 13 7
14 32 0 20 4 45 8 56 5 13 3 12 -7 -4 -8 -14 -17 -19 -21 -13 -3 6 0 12 6 15
10 3 8 13 -5 38 l-19 34 21 -25 c15 -18 21 -21 21 -10 0 9 -5 21 -11 27 -8 8
-8 13 1 18 8 5 6 11 -7 21 -17 13 -17 14 2 7 18 -6 19 -5 5 13 -14 18 -14 18
2 5 10 -7 15 -17 12 -22 -3 -5 0 -9 6 -9 6 0 8 -4 5 -10 -3 -5 -1 -10 4 -10
14 0 14 6 -4 40 -9 17 -20 30 -26 30 -6 0 -6 6 0 18 11 21 10 40 -4 62 -6 11
-2 10 12 -3 20 -17 27 -47 11 -47 -4 0 -8 -8 -8 -17 1 -16 2 -16 13 -2 7 9 19
14 27 12 13 -4 13 -3 0 6 -16 10 -28 87 -12 77 4 -3 8 15 8 40 0 24 -3 44 -7
44 -3 0 -5 -13 -4 -29 3 -33 -19 -79 -29 -62 -4 6 -2 11 3 11 6 0 11 5 11 11
0 5 -6 7 -12 3 -7 -4 -5 2 5 13 18 20 18 21 -5 38 -13 10 -16 15 -8 12 9 -2
24 1 35 9 10 8 14 14 8 14 -12 0 -11 39 1 59 6 9 5 12 -2 7 -7 -4 -9 5 -8 27
3 31 1 33 -26 31 -15 -1 -26 2 -23 7 3 4 13 5 23 2 9 -3 14 -3 10 2 -4 4 -2
15 5 23 9 13 9 14 0 8 -7 -4 -13 -3 -13 3 0 5 6 12 13 14 10 4 10 6 0 6 -7 1
-13 8 -13 17 0 8 -4 12 -10 9 -6 -4 -7 1 -3 11 4 11 3 15 -4 11 -13 -8 -11 19
2 30 4 4 5 2 0 -6 -5 -9 -4 -12 3 -7 6 4 8 14 5 23 -5 12 -3 14 7 8 10 -6 11
-4 4 6 -5 8 -9 22 -10 32 -1 9 -2 18 -4 20 -1 1 -3 13 -4 25 -3 25 -24 44 -38
36 -4 -3 -8 0 -8 6 0 7 7 9 16 6 8 -3 12 -2 9 3 -3 5 0 11 7 14 7 2 6 3 -3 2
-17 -2 -22 23 -7 41 5 8 3 18 -7 28 -20 19 -29 21 -18 4 12 -20 12 -35 -1 -35
-6 0 -12 13 -13 29 0 15 3 28 7 28 4 0 8 11 8 25 0 14 -5 25 -10 25 -6 0 -7 7
-4 16 3 8 2 13 -3 9 -5 -3 -17 -2 -26 1 -12 5 -13 9 -5 14 7 4 9 13 5 19 -5 9
-11 9 -23 -1 -15 -11 -15 -11 -4 4 10 12 10 17 1 20 -9 3 -9 9 0 25 9 18 8 23
-8 28 -11 3 -22 13 -25 22 -5 12 -3 13 7 5 7 -7 18 -7 27 -2 11 7 8 10 -13 15
-15 4 -27 11 -27 17 0 5 4 7 9 4 5 -3 8 2 7 12 0 9 5 16 12 14 8 -1 11 2 7 8
-5 8 -11 8 -20 0 -17 -14 -35 6 -35 40 0 6 -7 10 -15 10 -8 0 -15 -5 -15 -11
0 -5 -5 -7 -11 -3 -8 5 -8 9 1 14 9 5 8 9 -3 13 -9 3 -12 16 -10 39 3 24 2 29
-6 18 -5 -8 -7 -18 -5 -22 3 -4 -2 -5 -10 -2 -16 6 -20 17 -17 43 2 7 -2 10
-8 7 -10 -7 -61 38 -61 54 0 6 13 -4 29 -20 21 -22 30 -27 34 -17 3 8 2 20 -3
27 -6 10 -8 10 -12 0 -3 -9 -8 -8 -20 3 -9 9 -18 22 -20 29 -3 8 -16 5 -44
-11 -21 -12 -30 -16 -20 -7 18 14 15 21 -7 17 -10 -1 14 40 33 57 8 7 10 11 3
8 -6 -3 -19 -3 -28 0 -13 6 -14 9 -3 16 10 8 9 9 -4 5 -18 -6 -42 15 -30 28 4
4 -3 1 -15 -6 -24 -14 -31 -31 -12 -26 6 1 13 -4 15 -11 1 -7 0 -8 -2 -3 -3 6
-12 7 -20 4 -7 -3 -12 -8 -10 -12 8 -13 -33 -10 -44 4 -6 8 -24 11 -44 8 -19
-2 -36 0 -40 5 -8 14 71 7 89 -8 22 -19 42 1 25 27 -11 17 -11 17 -6 -1 5 -14
3 -17 -11 -11 -10 4 -23 8 -29 9 -7 1 -20 8 -30 16 -10 8 -15 10 -11 3 4 -6 3
-14 -3 -18 -5 -3 -10 1 -10 9 0 9 -5 16 -11 16 -5 0 -7 -4 -4 -10 3 -5 -1 -10
-10 -10 -10 0 -13 -5 -9 -12 5 -7 3 -8 -5 -4 -7 5 -10 14 -7 22 3 8 1 14 -4
14 -6 0 -10 -9 -10 -20 0 -11 -4 -20 -9 -20 -5 0 -8 12 -5 28 3 19 2 23 -5 12
-5 -8 -7 -18 -5 -22 3 -4 -5 -7 -17 -5 -13 2 -25 9 -27 15 -2 7 3 10 12 6 9
-3 16 -2 16 3 0 15 -31 11 -37 -5z m331 -54 c4 3 4 -1 1 -11 -8 -19 -21 -9
-43 33 -13 24 -12 24 11 -2 14 -15 28 -24 31 -20z m-378 17 c-1 -8 -6 -18 -11
-22 -4 -4 -5 -2 -1 5 4 6 3 12 -2 12 -6 0 -13 -7 -16 -16 -3 -8 -10 -12 -16
-9 -13 8 -13 -8 0 -21 7 -7 6 -11 -3 -11 -16 0 -18 37 -2 38 6 1 16 10 23 20
16 23 31 25 28 4z m144 -9 c0 -3 -4 -8 -10 -11 -5 -3 -10 -1 -10 4 0 6 5 11
10 11 6 0 10 -2 10 -4z m195 -26 c3 -6 -1 -7 -9 -4 -18 7 -21 14 -7 14 6 0 13
-4 16 -10z m89 -55 c-4 -8 -11 -15 -16 -15 -6 0 -5 6 2 15 7 8 14 15 16 15 2
0 1 -7 -2 -15z m-590 -111 c3 -8 2 -12 -4 -9 -6 3 -10 10 -10 16 0 14 7 11 14
-7z m-36 -19 c-3 -3 -9 2 -12 12 -6 14 -5 15 5 6 7 -7 10 -15 7 -18z m784 -52
c-1 -4 6 -16 15 -25 11 -13 12 -21 3 -37 -6 -12 -13 -21 -16 -21 -2 0 0 9 6
19 13 26 13 34 -2 25 -6 -4 -8 -3 -4 4 3 6 -2 15 -11 21 -11 6 -13 11 -5 11 8
0 10 5 6 13 -4 6 -4 9 0 5 4 -3 8 -10 8 -15z m-922 -183 c0 -5 -2 -10 -4 -10
-3 0 -8 5 -11 10 -3 6 -1 10 4 10 6 0 11 -4 11 -10z m1046 -96 c2 -12 0 -14
-9 -5 -6 6 -12 18 -13 27 -2 12 0 14 9 5 6 -6 12 -18 13 -27z m14 -102 c0 -5
-7 -9 -15 -9 -8 0 -12 4 -9 9 3 4 9 8 15 8 5 0 9 -4 9 -8z m38 -87 c-3 -3 -9
2 -12 12 -6 14 -5 15 5 6 7 -7 10 -15 7 -18z m7 -49 c1 -14 -3 -30 -9 -33 -6
-3 -8 -3 -4 2 4 4 0 14 -10 22 -16 12 -16 13 1 7 19 -7 21 14 2 29 -6 5 -4 7
5 5 8 -3 15 -17 15 -32z m-497 -61 c-3 -3 -9 2 -12 12 -6 14 -5 15 5 6 7 -7
10 -15 7 -18z m507 -84 c1 -12 -2 -21 -7 -21 -5 0 -8 8 -6 18 2 9 -3 23 -12
30 -13 12 -12 12 4 4 11 -5 20 -19 21 -31z m10 -69 c13 -9 14 -112 2 -112 -5
0 -7 7 -4 15 4 8 3 17 -2 19 -4 3 -7 20 -6 38 1 18 -3 36 -9 40 -6 5 -7 8 -1
8 6 0 15 -4 20 -8z m-370 -72 c-3 -5 -16 -10 -28 -9 -20 1 -20 2 3 9 14 4 26
8 28 9 2 1 0 -3 -3 -9z m-884 -73 c-10 -9 -11 -8 -5 6 3 10 9 15 12 12 3 -3 0
-11 -7 -18z m1244 -6 c3 -5 2 -12 -3 -15 -5 -3 -9 1 -9 9 0 17 3 19 12 6z
m-584 -44 c-10 -9 -11 -8 -5 6 3 10 9 15 12 12 3 -3 0 -11 -7 -18z m13 -153
c3 -8 2 -12 -4 -9 -6 3 -10 10 -10 16 0 14 7 11 14 -7z m336 1 c-10 -12 -10
-15 4 -15 9 0 16 -4 16 -10 0 -12 -19 -9 -37 5 -9 8 -8 13 5 23 22 16 27 15
12 -3z m45 -5 c3 -6 -1 -7 -9 -4 -18 7 -21 14 -7 14 6 0 13 -4 16 -10z m-390
-20 c3 -5 1 -10 -4 -10 -6 0 -11 5 -11 10 0 6 2 10 4 10 3 0 8 -4 11 -10z
m-639 -116 c2 -12 -1 -13 -12 -3 -7 6 -11 16 -8 21 7 11 17 3 20 -18z m674 2
c0 -3 -4 -8 -10 -11 -5 -3 -10 -1 -10 4 0 6 5 11 10 11 6 0 10 -2 10 -4z
m-672 -51 c-3 -3 -9 2 -12 12 -6 14 -5 15 5 6 7 -7 10 -15 7 -18z m677 16 c3
-5 0 -13 -6 -17 -7 -4 -9 -3 -5 4 3 5 0 13 -6 15 -9 4 -10 6 -1 6 6 1 14 -3
18 -8z m-41 -57 c3 -8 2 -12 -4 -9 -6 3 -10 10 -10 16 0 14 7 11 14 -7z m467
-7 c-10 -9 -11 -8 -5 6 3 10 9 15 12 12 3 -3 0 -11 -7 -18z m95 16 c-2 -2 -10
-5 -18 -7 -7 -1 -18 -5 -24 -8 -6 -4 -11 -2 -11 5 0 7 13 13 29 14 16 0 27 -1
24 -4z m-516 -7 c0 -2 -7 -7 -16 -10 -8 -3 -12 -2 -9 4 6 10 25 14 25 6z m493
-40 c4 -10 1 -13 -9 -9 -8 3 -14 2 -13 -3 3 -18 -1 -25 -12 -19 -7 5 -4 14 7
26 21 23 20 23 27 5z m-498 -225 c3 -5 0 -13 -6 -17 -7 -4 -9 -3 -5 4 3 5 0
13 -6 15 -9 4 -10 6 -1 6 6 1 14 -3 18 -8z m-613 -10 c-10 -6 -10 -10 3 -21 8
-7 15 -19 15 -27 0 -13 -3 -13 -15 -3 -8 7 -13 16 -10 20 3 5 1 11 -5 15 -13
8 -3 25 13 25 8 0 8 -3 -1 -9z m606 -57 c-1 -5 -9 -9 -16 -10 -10 -2 -11 1 -1
12 12 14 24 13 17 -2z m9 -69 c0 -8 -4 -12 -9 -9 -4 3 -8 9 -8 15 0 5 4 9 8 9
5 0 9 -7 9 -15z m-547 -9 c0 -2 -7 -7 -16 -10 -8 -3 -12 -2 -9 4 6 10 25 14
25 6z m18 -37 c3 -12 2 -12 -6 0 -6 8 -15 10 -22 6 -9 -5 -11 -4 -6 4 10 15
28 10 34 -10z m602 -103 c0 -3 -4 -8 -10 -11 -5 -3 -10 -1 -10 4 0 6 5 11 10
11 6 0 10 -2 10 -4z m34 -25 c3 -5 -1 -11 -9 -14 -9 -4 -12 -1 -8 9 6 16 10
17 17 5z m21 -118 c-2 -10 -4 -21 -4 -24 -1 -3 -8 -6 -17 -6 -14 0 -14 2 2 14
13 10 14 13 3 13 -12 0 -12 2 1 10 19 13 19 13 15 -7z m-5 -49 c0 -8 -19 -13
-24 -6 -3 5 1 9 9 9 8 0 15 -2 15 -3z m-344 -42 c3 -25 6 -26 15 -7 l9 20 -3
-20 c-2 -20 -42 -30 -42 -10 0 6 -4 15 -8 22 -4 7 -1 10 10 9 10 -2 19 -8 19
-14z m302 -13 c-7 -4 -16 -3 -20 4 -11 18 2 29 18 16 12 -10 12 -14 2 -20z
m-245 -2 c7 4 23 8 35 8 20 1 21 -1 8 -11 -9 -6 -15 -13 -13 -15 1 -2 -2 -1
-7 3 -14 11 -28 10 -21 -2 3 -5 1 -10 -4 -10 -6 0 -11 2 -11 4 0 2 -2 10 -3
18 -2 7 -2 10 0 5 3 -4 10 -4 16 0z"/>
<path d="M3360 3898 c-12 -8 -12 -9 2 -5 9 3 19 1 22 -6 3 -9 5 -9 5 0 1 18
-13 23 -29 11z"/>
<path d="M3517 3806 c-3 -8 -2 -18 3 -21 13 -8 20 9 11 24 -6 10 -10 9 -14 -3z"/>
<path d="M4194 3789 c-5 -8 -3 -10 6 -4 9 5 10 2 6 -13 -4 -11 -3 -23 2 -25 9
-6 10 38 1 48 -4 3 -10 1 -15 -6z"/>
<path d="M3635 3760 c3 -5 8 -10 11 -10 2 0 4 5 4 10 0 6 -5 10 -11 10 -5 0
-7 -4 -4 -10z"/>
<path d="M508 3733 c6 -2 12 -9 12 -14 0 -6 -4 -7 -10 -4 -6 4 -7 -1 -3 -11 5
-15 7 -15 15 0 10 18 3 36 -15 35 -9 0 -9 -2 1 -6z"/>
<path d="M552 3728 c-9 -9 -9 -15 1 -27 10 -12 9 -14 -7 -8 -16 6 -17 5 -6 -8
10 -12 15 -13 21 -3 4 7 3 18 -2 24 -6 8 -7 14 0 18 5 4 12 -2 16 -13 3 -11
13 -18 23 -16 9 2 20 4 25 4 10 1 9 29 -1 35 -4 2 -14 0 -22 -6 -12 -8 -12 -9
3 -4 18 6 24 -9 8 -19 -6 -3 -18 4 -29 15 -14 15 -21 17 -30 8z"/>
<path d="M739 3714 c-17 -18 -19 -23 -6 -18 9 3 17 11 17 16 0 7 4 7 13 0 8
-7 18 -7 27 -2 10 6 23 4 38 -6 l23 -15 -17 26 c-11 17 -20 23 -27 16 -6 -6
-16 -7 -27 -1 -13 7 -23 3 -41 -16z"/>
<path d="M854 3729 c-4 -7 -2 -15 4 -17 7 -2 10 -7 8 -11 -3 -4 1 -8 9 -8 12
0 12 3 2 15 -6 8 -10 17 -9 19 2 3 1 7 -1 9 -3 3 -8 0 -13 -7z"/>
<path d="M4857 3733 c-10 -9 -9 -23 1 -23 5 0 9 7 9 15 0 17 -1 18 -10 8z"/>
<path d="M646 3722 c-3 -4 4 -9 15 -9 23 -2 25 3 4 10 -8 4 -16 3 -19 -1z"/>
<path d="M690 3725 c0 -5 4 -15 8 -22 6 -9 11 -7 20 7 7 12 8 20 2 20 -5 0
-10 -6 -10 -12 0 -9 -4 -8 -10 2 -5 8 -10 11 -10 5z"/>
<path d="M3635 3720 c-3 -5 -1 -10 4 -10 6 0 11 5 11 10 0 6 -2 10 -4 10 -3 0
-8 -4 -11 -10z"/>
<path d="M2315 3709 c-4 -5 -4 -13 -1 -16 3 -3 1 -12 -6 -20 -8 -11 -7 -12 5
-8 17 7 29 42 17 50 -5 3 -12 0 -15 -6z"/>
<path d="M1150 3706 c0 -2 9 -6 20 -9 11 -3 18 -1 14 4 -5 9 -34 13 -34 5z"/>
<path d="M1210 3700 c0 -5 5 -10 11 -10 5 0 7 5 4 10 -3 6 -8 10 -11 10 -2 0
-4 -4 -4 -10z"/>
<path d="M2900 3706 c0 -2 8 -10 18 -17 15 -13 16 -12 3 4 -13 16 -21 21 -21
13z"/>
<path d="M650 3689 c0 -5 -4 -8 -9 -4 -5 3 -12 1 -15 -4 -4 -5 2 -8 11 -7 15
3 33 26 19 26 -3 0 -6 -5 -6 -11z"/>
<path d="M675 3689 c-4 -6 -5 -12 -2 -15 2 -3 7 2 10 11 7 17 1 20 -8 4z"/>
<path d="M3635 3691 c-3 -5 -1 -12 5 -16 5 -3 10 1 10 9 0 18 -6 21 -15 7z"/>
<path d="M773 3675 c0 -8 4 -12 9 -9 5 3 6 10 3 15 -9 13 -12 11 -12 -6z"/>
<path d="M996 3678 c3 -5 10 -6 15 -3 13 9 11 12 -6 12 -8 0 -12 -4 -9 -9z"/>
<path d="M1030 3680 c0 -5 5 -10 11 -10 5 0 7 5 4 10 -3 6 -8 10 -11 10 -2 0
-4 -4 -4 -10z"/>
<path d="M1275 3671 c-3 -5 -2 -12 3 -15 5 -3 9 1 9 9 0 17 -3 19 -12 6z"/>
<path d="M485 3660 c-3 -6 1 -7 9 -4 18 7 21 14 7 14 -6 0 -13 -4 -16 -10z"/>
<path d="M2314 3649 c-3 -6 -2 -15 3 -20 5 -5 9 -1 9 11 0 23 -2 24 -12 9z"/>
<path d="M3683 3646 c-10 -11 -9 -15 4 -20 9 -4 18 -4 21 -1 3 3 0 5 -6 5 -6
0 -9 7 -6 15 7 18 3 19 -13 1z"/>
<path d="M1384 3596 c4 -10 1 -26 -6 -34 -10 -12 -10 -14 0 -8 6 4 12 2 12 -3
0 -6 4 -11 9 -11 12 0 6 33 -9 57 -11 17 -11 17 -6 -1z"/>
<path d="M2805 3560 c-16 -6 -13 -8 13 -7 17 0 32 1 32 2 0 8 -28 11 -45 5z"/>
<path d="M4270 3536 c0 -2 7 -7 16 -10 8 -3 12 -2 9 4 -6 10 -25 14 -25 6z"/>
<path d="M1376 3502 c-3 -5 1 -9 9 -9 8 0 12 4 9 9 -3 4 -7 8 -9 8 -2 0 -6 -4
-9 -8z"/>
<path d="M2766 3451 c-4 -5 -2 -12 3 -15 5 -4 12 -2 15 3 4 5 2 12 -3 15 -5 4
-12 2 -15 -3z"/>
<path d="M3793 3436 c-9 -11 -8 -18 8 -32 10 -9 22 -15 25 -11 10 9 -6 28 -18
21 -6 -4 -8 1 -3 15 7 24 5 26 -12 7z"/>
<path d="M2735 3420 c-3 -5 -1 -10 4 -10 6 0 11 5 11 10 0 6 -2 10 -4 10 -3 0
-8 -4 -11 -10z"/>
<path d="M4920 3386 c0 -2 7 -6 15 -10 8 -3 15 -1 15 4 0 6 -7 10 -15 10 -8 0
-15 -2 -15 -4z"/>
<path d="M3815 3370 c-3 -6 1 -7 9 -4 18 7 21 14 7 14 -6 0 -13 -4 -16 -10z"/>
<path d="M4938 3318 c-4 -9 1 -23 11 -32 16 -14 17 -14 17 9 0 13 -3 22 -7 19
-4 -2 -9 1 -11 8 -3 8 -6 6 -10 -4z"/>
<path d="M1041 3293 c-7 -8 -11 -16 -8 -19 2 -2 10 2 17 11 17 20 9 27 -9 8z"/>
<path d="M1041 3261 c-8 -6 -9 -11 -3 -15 6 -3 14 -1 17 5 9 14 2 20 -14 10z"/>
<path d="M2670 3266 c0 -2 7 -7 16 -10 8 -3 12 -2 9 4 -6 10 -25 14 -25 6z"/>
<path d="M955 3220 c3 -5 8 -10 11 -10 2 0 4 5 4 10 0 6 -5 10 -11 10 -5 0 -7
-4 -4 -10z"/>
<path d="M2678 3163 c7 -3 16 -2 19 1 4 3 -2 6 -13 5 -11 0 -14 -3 -6 -6z"/>
<path d="M2661 3111 c-11 -7 -11 -9 0 -14 10 -4 10 -6 2 -6 -17 -1 -17 -17 0
-24 8 -3 12 5 12 24 1 16 1 29 0 29 0 0 -6 -4 -14 -9z"/>
<path d="M4353 3067 c20 -16 23 -32 5 -21 -9 5 -8 2 1 -9 12 -15 12 -20 -5
-33 -18 -14 -18 -15 4 -4 13 6 22 7 22 1 0 -5 -6 -12 -12 -14 -10 -4 -10 -6 0
-6 8 -1 10 -6 6 -13 -5 -10 -3 -10 7 0 17 16 18 33 2 50 -7 7 -10 19 -7 27 3
8 -4 18 -18 25 -21 10 -21 10 -5 -3z"/>
<path d="M3910 2991 c0 -6 4 -13 10 -16 6 -3 7 1 4 9 -7 18 -14 21 -14 7z"/>
<path d="M2650 2966 c0 -8 -6 -16 -12 -19 -10 -3 -8 -10 5 -23 10 -11 17 -13
17 -6 0 7 -5 12 -10 12 -6 0 -3 11 6 25 10 15 12 25 5 25 -6 0 -11 -6 -11 -14z"/>
<path d="M3403 2969 c9 -6 15 -14 12 -20 -7 -10 8 -13 18 -2 7 7 -22 32 -38
32 -5 0 -2 -4 8 -10z"/>
<path d="M3386 2943 c-6 -14 -5 -15 5 -6 7 7 10 15 7 18 -3 3 -9 -2 -12 -12z"/>
<path d="M3360 2906 c0 -2 7 -7 16 -10 8 -3 12 -2 9 4 -6 10 -25 14 -25 6z"/>
<path d="M3935 2900 c-3 -5 -1 -10 4 -10 6 0 11 5 11 10 0 6 -2 10 -4 10 -3 0
-8 -4 -11 -10z"/>
<path d="M939 2848 c-8 -27 -6 -38 5 -29 7 6 17 7 22 3 4 -4 2 1 -5 11 -12 16
-20 21 -22 15z"/>
<path d="M2630 2800 c0 -5 5 -10 11 -10 5 0 7 5 4 10 -3 6 -8 10 -11 10 -2 0
-4 -4 -4 -10z"/>
<path d="M3348 2787 c7 -8 8 -18 4 -22 -4 -5 -1 -5 6 -1 17 10 15 23 -4 30
-13 5 -14 4 -6 -7z"/>
<path d="M2640 2770 c14 -9 7 -14 -13 -11 -5 1 -6 -3 -2 -9 5 -8 11 -8 21 1
15 12 10 29 -9 29 -7 0 -6 -4 3 -10z"/>
<path d="M2152 2736 c0 -6 -3 -21 -6 -34 -3 -14 -1 -20 5 -16 6 3 8 8 5 11
-10 10 15 44 27 37 7 -4 8 -3 4 1 -12 13 -34 14 -35 1z"/>
<path d="M1401 2726 c-8 -10 -9 -16 -1 -21 6 -4 9 -1 8 6 -2 6 3 14 11 17 9 3
11 0 6 -8 -5 -9 -4 -11 4 -6 12 8 6 26 -8 26 -5 0 -14 -6 -20 -14z"/>
<path d="M2615 2700 c3 -5 8 -10 11 -10 2 0 4 5 4 10 0 6 -5 10 -11 10 -5 0
-7 -4 -4 -10z"/>
<path d="M2636 2681 c-3 -5 1 -11 9 -14 9 -4 12 -1 8 9 -6 16 -10 17 -17 5z"/>
<path d="M2148 2663 c7 -3 16 -2 19 1 4 3 -2 6 -13 5 -11 0 -14 -3 -6 -6z"/>
<path d="M2140 2640 c0 -5 4 -10 9 -10 6 0 13 5 16 10 3 6 -1 10 -9 10 -9 0
-16 -4 -16 -10z"/>
<path d="M3556 2631 c6 -6 20 -13 32 -16 16 -3 19 0 15 13 -4 10 -8 12 -11 4
-3 -9 -9 -9 -25 -1 -17 9 -19 9 -11 0z"/>
<path d="M2170 2620 c0 -5 5 -10 11 -10 5 0 7 5 4 10 -3 6 -8 10 -11 10 -2 0
-4 -4 -4 -10z"/>
<path d="M2157 2587 c-3 -8 1 -14 8 -14 7 0 11 6 8 14 -3 7 -6 13 -8 13 -2 0
-5 -6 -8 -13z"/>
<path d="M1470 2546 c0 -2 9 -6 20 -9 11 -3 18 -1 14 4 -5 9 -34 13 -34 5z"/>
<path d="M3926 2541 c-3 -5 2 -15 12 -22 15 -13 16 -12 3 4 -15 20 -2 23 19 5
12 -11 12 -10 1 5 -15 19 -27 22 -35 8z"/>
<path d="M4355 2471 c-3 -5 -2 -12 3 -15 5 -3 9 1 9 9 0 17 -3 19 -12 6z"/>
<path d="M4997 2469 c7 -7 15 -10 18 -7 3 3 -2 9 -12 12 -14 6 -15 5 -6 -5z"/>
<path d="M1335 2410 c-4 -6 -11 -8 -16 -5 -5 4 -9 1 -9 -4 0 -6 -5 -11 -11
-11 -5 0 -7 6 -3 13 5 8 2 8 -9 -2 -11 -9 -17 -10 -17 -2 0 6 -5 11 -11 11 -8
0 -8 -4 0 -14 15 -18 58 -14 79 8 9 9 13 16 10 16 -4 0 -10 -5 -13 -10z"/>
<path d="M1404 2402 c3 -18 18 -20 24 -4 1 5 -4 12 -12 15 -9 4 -13 0 -12 -11z"/>
<path d="M1447 2403 c3 -7 6 -13 8 -13 1 0 7 6 13 13 8 10 6 13 -7 13 -11 0
-17 -6 -14 -13z"/>
<path d="M4358 2413 c7 -3 16 -2 19 1 4 3 -2 6 -13 5 -11 0 -14 -3 -6 -6z"/>
<path d="M1190 2389 c0 -15 18 -19 23 -6 3 8 -1 14 -9 14 -8 0 -14 -4 -14 -8z"/>
<path d="M995 2350 c-3 -5 -1 -10 5 -10 6 0 8 -5 4 -12 -4 -7 -3 -8 4 -4 6 4
9 13 5 21 -6 18 -10 19 -18 5z"/>
<path d="M3749 2301 c6 -10 7 -22 3 -26 -4 -5 -1 -5 6 -1 9 5 9 12 2 27 -6 10
-13 19 -16 19 -2 0 0 -8 5 -19z"/>
<path d="M2190 2279 c0 -4 6 -9 13 -12 8 -3 14 0 14 7 0 7 -6 13 -14 13 -7 0
-13 -4 -13 -8z"/>
<path d="M2680 2274 c0 -8 5 -12 10 -9 6 4 8 11 5 16 -9 14 -15 11 -15 -7z"/>
<path d="M3750 2256 c0 -2 8 -10 18 -17 15 -13 16 -12 3 4 -13 16 -21 21 -21
13z"/>
<path d="M3790 2240 c0 -5 5 -10 10 -10 6 0 10 5 10 10 0 6 -4 10 -10 10 -5 0
-10 -4 -10 -10z"/>
<path d="M954 2216 c4 -10 0 -29 -8 -41 -14 -21 -14 -23 1 -21 19 3 25 43 11
66 -7 12 -8 11 -4 -4z"/>
<path d="M2690 2165 c0 -8 4 -15 8 -15 5 0 9 7 9 15 0 8 -4 15 -9 15 -4 0 -8
-7 -8 -15z"/>
<path d="M3826 2158 c3 -5 10 -6 15 -3 13 9 11 12 -6 12 -8 0 -12 -4 -9 -9z"/>
<path d="M4326 2047 c3 -10 9 -15 12 -12 3 3 0 11 -7 18 -10 9 -11 8 -5 -6z"/>
<path d="M953 2016 c0 -8 6 -12 14 -9 7 3 10 9 7 14 -8 14 -21 11 -21 -5z"/>
<path d="M4313 2017 c14 -11 15 -16 5 -20 -9 -4 -9 -6 -1 -6 23 -2 23 18 1 29
-21 10 -22 10 -5 -3z"/>
<path d="M955 1951 c-3 -5 -2 -12 3 -15 5 -3 9 1 9 9 0 17 -3 19 -12 6z"/>
<path d="M2257 1935 c-4 -8 -3 -16 1 -19 4 -3 9 4 9 15 2 23 -3 25 -10 4z"/>
<path d="M4956 1932 c-3 -5 1 -9 9 -9 8 0 12 4 9 9 -3 4 -7 8 -9 8 -2 0 -6 -4
-9 -8z"/>
<path d="M2255 1890 c3 -5 8 -10 11 -10 2 0 4 5 4 10 0 6 -5 10 -11 10 -5 0
-7 -4 -4 -10z"/>
<path d="M1119 1853 c-13 -16 -12 -17 4 -4 9 7 17 15 17 17 0 8 -8 3 -21 -13z"/>
<path d="M3417 1799 c7 -7 15 -10 18 -7 3 3 -2 9 -12 12 -14 6 -15 5 -6 -5z"/>
<path d="M2821 1781 c-10 -7 -7 -9 12 -8 14 1 23 5 20 10 -6 9 -15 9 -32 -2z"/>
<path d="M1258 1768 c5 -5 16 -8 23 -6 8 3 3 7 -10 11 -17 4 -21 3 -13 -5z"/>
<path d="M4262 1754 c-7 -8 -8 -14 -3 -14 10 0 25 19 20 25 -2 1 -10 -3 -17
-11z"/>
<path d="M1275 1721 c-3 -5 0 -13 6 -17 8 -4 7 -9 -2 -15 -10 -6 -10 -9 -2 -9
17 0 29 23 15 28 -7 2 -10 8 -6 13 3 5 3 9 0 9 -3 0 -7 -4 -11 -9z"/>
<path d="M2861 1684 c0 -11 3 -14 6 -6 3 7 2 16 -1 19 -3 4 -6 -2 -5 -13z"/>
<path d="M2885 1689 c-4 -6 -5 -12 -2 -15 2 -3 7 2 10 11 7 17 1 20 -8 4z"/>
<path d="M4235 1689 c-4 -5 -11 -6 -17 -3 -6 4 -8 2 -4 -4 3 -6 16 -9 28 -7
28 6 32 11 14 18 -9 4 -18 2 -21 -4z"/>
<path d="M4909 1688 c-9 -34 -5 -58 9 -58 15 0 15 2 2 10 -12 8 -12 10 -1 10
11 0 11 3 0 16 -12 15 -11 16 11 10 19 -6 21 -5 10 3 -14 10 -29 14 -31 9z"/>
<path d="M2322 1654 c-14 -16 -5 -18 17 -5 7 5 9 11 5 14 -5 3 -15 -1 -22 -9z"/>
<path d="M2976 1575 c-3 -9 -2 -14 2 -11 4 2 14 1 22 -5 12 -7 11 -9 -5 -9
-16 -1 -14 -3 8 -13 16 -7 29 -16 28 -20 -3 -21 0 -27 11 -21 8 5 9 2 4 -12
-4 -10 -4 -15 -1 -12 4 4 17 3 29 -2 16 -6 23 -5 23 5 0 7 -6 11 -13 8 -7 -2
-22 5 -33 16 -13 13 -16 21 -8 21 6 1 2 6 -11 13 -12 7 -20 15 -17 18 3 3 -3
13 -14 23 -17 15 -19 15 -25 1z"/>
<path d="M2350 1521 c0 -6 4 -13 10 -16 6 -3 7 1 4 9 -7 18 -14 21 -14 7z"/>
<path d="M2995 1500 c3 -5 8 -10 11 -10 2 0 4 5 4 10 0 6 -5 10 -11 10 -5 0
-7 -4 -4 -10z"/>
<path d="M4862 1505 c4 -4 3 -14 -3 -21 -13 -16 2 -26 21 -13 11 6 12 9 2 9
-7 0 -11 4 -7 9 3 5 0 13 -7 17 -7 4 -10 4 -6 -1z"/>
<path d="M915 1481 c-3 -5 -2 -12 3 -15 5 -3 9 1 9 9 0 17 -3 19 -12 6z"/>
<path d="M953 1473 c4 -6 1 -13 -5 -16 -7 -2 0 -4 15 -4 15 0 27 0 25 1 -2 1
-12 8 -22 16 -11 8 -17 10 -13 3z"/>
<path d="M902 1450 c13 -20 28 -27 28 -12 0 4 -9 13 -20 20 -19 12 -20 11 -8
-8z"/>
<path d="M1055 1460 c3 -5 8 -10 11 -10 2 0 4 5 4 10 0 6 -5 10 -11 10 -5 0
-7 -4 -4 -10z"/>
<path d="M1105 1462 c4 -7 -1 -22 -10 -32 -15 -16 -15 -18 -1 -16 29 4 37 21
20 42 -8 10 -12 13 -9 6z"/>
<path d="M1164 1448 c-3 -10 -10 -15 -16 -12 -7 5 -8 2 -3 -5 5 -9 12 -7 27 8
10 12 23 19 29 16 5 -4 9 -2 9 4 0 17 -40 8 -46 -11z"/>
<path d="M1076 1444 c-4 -11 -10 -13 -19 -7 -16 12 -57 14 -57 3 0 -5 -9 -7
-20 -5 -11 2 -32 -2 -47 -10 -15 -8 -31 -11 -36 -8 -6 3 -7 1 -4 -5 6 -8 42
-10 42 -2 0 1 12 3 26 4 14 0 32 6 40 13 11 9 18 8 32 -2 14 -10 15 -14 5 -18
-7 -3 -8 -6 -2 -6 13 -1 59 47 52 54 -3 3 -8 -2 -12 -11z m-21 -14 c3 -6 -1
-7 -9 -4 -18 7 -21 14 -7 14 6 0 13 -4 16 -10z"/>
<path d="M4235 1419 c-11 -4 -14 -8 -7 -8 20 -1 39 -24 36 -44 -2 -15 0 -16
12 -6 13 10 13 14 0 28 -8 9 -15 20 -14 24 0 14 -6 15 -27 6z"/>
<path d="M2435 1411 c-3 -5 -2 -12 3 -15 5 -3 9 1 9 9 0 17 -3 19 -12 6z"/>
<path d="M3233 1395 c0 -8 4 -12 9 -9 5 3 6 10 3 15 -9 13 -12 11 -12 -6z"/>
<path d="M2445 1359 c-4 -6 -5 -12 -2 -15 2 -3 7 2 10 11 7 17 1 20 -8 4z"/>
<path d="M4347 1199 c7 -7 15 -10 18 -7 3 3 -2 9 -12 12 -14 6 -15 5 -6 -5z"/>
<path d="M2520 1146 c0 -2 7 -6 15 -10 8 -3 15 -1 15 4 0 6 -7 10 -15 10 -8 0
-15 -2 -15 -4z"/>
<path d="M4750 1125 c0 -8 29 -12 39 -5 9 5 4 8 -13 8 -14 0 -26 -2 -26 -3z"/>
<path d="M4411 1111 c-10 -6 -9 -10 3 -14 8 -3 18 -2 21 3 8 13 -9 20 -24 11z"/>
<path d="M718 1053 c6 -3 10 -8 7 -13 -3 -5 2 -15 10 -23 11 -12 12 -17 2 -20
-6 -3 -2 -4 10 -4 17 1 19 4 11 14 -6 7 -7 13 -3 13 4 0 2 6 -4 13 -6 8 -9 16
-6 18 2 3 -6 5 -18 6 -12 0 -16 -1 -9 -4z"/>
<path d="M4494 944 c1 -9 10 -22 20 -29 13 -10 14 -14 4 -18 -9 -4 -9 -6 -1
-6 19 -1 26 19 9 25 -9 3 -14 10 -11 14 3 4 -2 13 -9 19 -12 10 -14 9 -12 -5z"/>
<path d="M4685 950 c-2 -3 5 -6 15 -7 11 -1 22 2 24 5 3 4 -4 8 -15 8 -11 0
-22 -3 -24 -6z"/>
<path d="M4690 915 c0 -8 2 -15 4 -15 2 0 6 7 10 15 3 8 1 15 -4 15 -6 0 -10
-7 -10 -15z"/>
<path d="M1350 916 c0 -10 42 -45 54 -46 6 0 1 7 -10 15 -11 8 -14 15 -6 15 6
0 12 5 12 11 0 8 -4 8 -13 0 -10 -8 -17 -7 -25 1 -7 7 -12 8 -12 4z"/>
<path d="M1310 889 c-22 -18 -22 -19 -3 -10 12 6 25 16 28 21 9 15 3 12 -25
-11z"/>
<path d="M3736 897 c3 -10 9 -15 12 -12 3 3 0 11 -7 18 -10 9 -11 8 -5 -6z"/>
<path d="M1096 873 c-6 -14 -5 -15 5 -6 7 7 10 15 7 18 -3 3 -9 -2 -12 -12z"/>
<path d="M1335 880 c-3 -5 -1 -10 4 -10 6 0 11 5 11 10 0 6 -2 10 -4 10 -3 0
-8 -4 -11 -10z"/>
<path d="M4676 878 c3 -5 10 -6 15 -3 13 9 11 12 -6 12 -8 0 -12 -4 -9 -9z"/>
<path d="M3911 867 c-8 -10 -7 -14 4 -14 8 0 15 6 15 14 0 7 -2 13 -4 13 -2 0
-9 -6 -15 -13z"/>
<path d="M2800 860 c-13 -8 -12 -10 3 -10 9 0 17 5 17 10 0 12 -1 12 -20 0z"/>
<path d="M2835 860 c-3 -5 -1 -10 4 -10 6 0 11 5 11 10 0 6 -2 10 -4 10 -3 0
-8 -4 -11 -10z"/>
<path d="M3696 842 c-3 -5 1 -9 9 -9 8 0 12 4 9 9 -3 4 -7 8 -9 8 -2 0 -6 -4
-9 -8z"/>
<path d="M2840 800 c0 -4 7 -7 15 -6 23 3 26 12 5 13 -11 1 -20 -2 -20 -7z"/>
<path d="M2956 793 c-6 -14 -5 -15 5 -6 7 7 10 15 7 18 -3 3 -9 -2 -12 -12z"/>
<path d="M3662 794 c10 -10 20 -16 22 -13 3 3 -5 11 -17 18 -21 13 -21 12 -5
-5z"/>
<path d="M1450 790 c-9 -6 -10 -10 -3 -10 6 0 15 5 18 10 8 12 4 12 -15 0z"/>
<path d="M3575 791 c-6 -11 13 -26 22 -17 4 3 1 6 -6 6 -7 0 -9 5 -6 10 3 6 4
10 1 10 -3 0 -7 -4 -11 -9z"/>
<path d="M2990 755 c0 -8 4 -15 10 -15 5 0 7 7 4 15 -4 8 -8 15 -10 15 -2 0
-4 -7 -4 -15z"/>
<path d="M1237 479 c7 -7 15 -10 18 -7 3 3 -2 9 -12 12 -14 6 -15 5 -6 -5z"/>
<path d="M4145 471 c-6 -11 13 -26 22 -17 4 3 0 6 -8 6 -11 0 -11 2 1 10 9 6
10 10 3 10 -6 0 -14 -4 -18 -9z"/>
<path d="M4115 140 c3 -5 8 -10 11 -10 2 0 4 5 4 10 0 6 -5 10 -11 10 -5 0 -7
-4 -4 -10z"/>
<path d="M4030 79 c0 -5 5 -7 10 -4 6 3 10 8 10 11 0 2 -4 4 -10 4 -5 0 -10
-5 -10 -11z"/>
<path d="M3934 39 c-3 -6 -1 -16 5 -22 9 -9 10 -7 5 7 -6 15 -4 17 6 11 9 -5
11 -4 6 3 -9 15 -13 15 -22 1z"/>
</g>
</svg>
